<svg width="38" height="38" viewBox="0 0 38 38" fill="none" xmlns="http://www.w3.org/2000/svg">
<path d="M34.8334 13.63V26.5215C34.8335 27.8359 34.3306 29.1005 33.4279 30.0559C32.5252 31.0112 31.2912 31.585 29.9789 31.6594L29.6876 31.6673H8.31258C6.9982 31.6674 5.7336 31.1645 4.77822 30.2618C3.82283 29.3591 3.24908 28.1251 3.17466 26.8128L3.16675 26.5215V13.63L18.4491 21.6353C18.6191 21.7244 18.8082 21.7709 19.0001 21.7709C19.192 21.7709 19.3811 21.7244 19.5511 21.6353L34.8334 13.63ZM8.31258 6.33398H29.6876C30.9631 6.33383 32.1932 6.80739 33.1393 7.66282C34.0854 8.51825 34.6801 9.69458 34.8081 10.9637L19.0001 19.2445L3.19208 10.9637C3.31483 9.74498 3.86824 8.61005 4.75285 7.76288C5.63746 6.91571 6.79524 6.41186 8.01808 6.3419L8.31258 6.33398H29.6876H8.31258Z" fill="#FF8A00"/>
</svg>
