<svg width="1215" height="269" viewBox="0 0 1215 269" fill="none" xmlns="http://www.w3.org/2000/svg">
<path d="M0.282048 94.6754C3.66964 137.196 38.1671 171.55 80.5586 174.636C104.893 176.413 127.332 168.089 144.146 153.438C155.427 143.618 171.433 141.436 185.077 147.546C198.969 153.781 207.671 167.559 208.013 182.803C208.044 184.424 208.137 186.045 208.261 187.698C211.556 230.624 246.55 265.258 289.408 268.001C339.973 271.243 382.147 230.873 382.147 180.839V180.621C382.147 166.78 390.228 154.186 402.846 148.543L407.476 146.455C419.784 140.937 434.391 142.839 444.367 151.973C450.862 157.927 458.29 162.915 466.371 166.687C466.464 166.718 466.526 166.78 466.619 166.811C467.521 167.216 468.422 167.622 469.323 167.996C469.665 168.152 470.007 168.308 470.349 168.432C471.064 168.713 471.778 168.993 472.493 169.274C473.053 169.492 473.612 169.71 474.172 169.897C474.731 170.084 475.29 170.271 475.85 170.459C476.596 170.708 477.342 170.957 478.087 171.176C478.523 171.3 478.958 171.425 479.393 171.55C480.263 171.799 481.164 172.048 482.066 172.267C482.407 172.36 482.78 172.422 483.122 172.516C484.086 172.734 485.08 172.952 486.075 173.171C486.385 173.233 486.696 173.295 487.007 173.358C488.002 173.545 489.027 173.732 490.053 173.856C490.395 173.919 490.705 173.95 491.047 174.012C492.011 174.137 493.005 174.262 493.969 174.355C494.404 174.386 494.808 174.449 495.243 174.48C495.647 174.511 496.051 174.573 496.455 174.605C496.859 174.605 497.294 174.636 497.698 174.667C498.444 174.698 499.159 174.761 499.905 174.761C500.589 174.761 501.272 174.792 501.956 174.823C502.298 174.823 502.64 174.823 503.013 174.823C503.479 174.823 503.945 174.823 504.411 174.792C505.002 174.792 505.623 174.792 506.214 174.761C507.115 174.729 507.985 174.667 508.855 174.605C509.384 174.573 509.912 174.542 510.409 174.48C511.404 174.386 512.367 174.293 513.362 174.168C513.766 174.106 514.17 174.075 514.574 174.012C515.786 173.856 516.967 173.669 518.148 173.451C518.334 173.451 518.49 173.389 518.676 173.358C522.934 172.578 527.068 171.487 531.077 170.116C531.077 170.116 531.077 170.116 531.108 170.116C532.413 169.679 533.687 169.18 534.962 168.682C535.055 168.65 535.179 168.588 535.272 168.557C536.453 168.089 537.634 167.591 538.815 167.061C538.94 166.998 539.064 166.936 539.219 166.874C540.369 166.344 541.488 165.814 542.607 165.221C542.731 165.159 542.856 165.097 542.949 165.034C544.099 164.442 545.218 163.819 546.305 163.195C546.399 163.133 546.461 163.102 546.554 163.039C547.704 162.353 548.854 161.668 549.973 160.919C549.973 160.919 550.004 160.919 550.035 160.888C553.671 158.55 557.121 155.963 560.353 153.126C560.788 152.752 561.254 152.378 561.72 152.004C572.878 143.337 588.013 141.654 600.973 147.484C614.865 153.718 623.567 167.497 623.909 182.741C623.94 184.362 624.033 185.983 624.158 187.635C625.774 208.771 635.097 227.88 649.207 242.158C649.207 242.158 649.207 242.158 649.238 242.189C650.046 243 650.885 243.81 651.725 244.59C651.818 244.683 651.942 244.777 652.035 244.901C652.781 245.618 653.558 246.304 654.366 246.959C654.553 247.146 654.77 247.302 654.957 247.489C655.672 248.081 656.386 248.673 657.101 249.234C657.412 249.484 657.692 249.702 658.003 249.951C658.655 250.45 659.308 250.949 659.961 251.417C660.333 251.697 660.737 251.978 661.142 252.258C661.732 252.664 662.354 253.069 662.944 253.474C663.41 253.786 663.877 254.098 664.374 254.409C664.933 254.752 665.493 255.095 666.052 255.438C666.611 255.781 667.14 256.093 667.699 256.436C668.227 256.747 668.725 257.028 669.253 257.308C669.875 257.651 670.465 257.994 671.087 258.306C671.584 258.555 672.081 258.805 672.579 259.054C673.231 259.397 673.915 259.709 674.568 260.02C675.034 260.239 675.531 260.457 675.997 260.675C676.712 260.987 677.396 261.299 678.111 261.579C678.577 261.766 679.043 261.953 679.54 262.14C680.255 262.421 681.001 262.701 681.716 262.982C682.213 263.169 682.679 263.325 683.176 263.481C683.922 263.73 684.637 263.98 685.383 264.198C685.88 264.354 686.409 264.509 686.906 264.634C687.652 264.852 688.367 265.071 689.112 265.258C689.641 265.414 690.2 265.538 690.729 265.663C691.443 265.85 692.158 266.006 692.873 266.162C693.463 266.286 694.054 266.411 694.644 266.505C695.328 266.629 696.012 266.754 696.727 266.879C697.348 266.972 698.001 267.066 698.654 267.159C699.306 267.253 699.959 267.346 700.612 267.409C701.295 267.502 702.01 267.565 702.694 267.627C703.098 267.658 703.502 267.72 703.937 267.752C704.124 267.752 704.279 267.752 704.465 267.752C704.745 267.752 705.025 267.814 705.305 267.814C706.019 267.845 706.703 267.876 707.418 267.907C708.102 267.907 708.785 267.97 709.438 267.97C710.339 267.97 711.272 267.97 712.173 267.97C712.888 267.97 713.603 267.97 714.286 267.939C715.125 267.907 715.964 267.845 716.804 267.783C717.549 267.72 718.326 267.689 719.072 267.627C719.787 267.565 720.502 267.471 721.217 267.377C722.056 267.284 722.926 267.19 723.765 267.066C724.107 267.003 724.449 266.941 724.791 266.879C728.8 266.224 732.716 265.32 736.539 264.135C736.694 264.104 736.818 264.042 736.974 264.011C738.155 263.637 739.305 263.231 740.455 262.826C740.734 262.733 740.983 262.639 741.263 262.546C742.382 262.14 743.469 261.673 744.526 261.236C744.806 261.112 745.116 260.987 745.396 260.862C746.453 260.395 747.51 259.896 748.566 259.397C748.846 259.272 749.157 259.116 749.436 258.992C750.493 258.462 751.519 257.932 752.513 257.371C752.793 257.215 753.073 257.059 753.352 256.903C754.378 256.342 755.372 255.719 756.367 255.126C756.616 254.97 756.895 254.814 757.144 254.659C758.138 254.035 759.133 253.381 760.096 252.695C760.314 252.539 760.563 252.383 760.78 252.227C761.775 251.541 762.738 250.824 763.702 250.107C763.888 249.951 764.106 249.796 764.292 249.64C765.255 248.891 766.219 248.112 767.151 247.302C767.307 247.177 767.493 247.021 767.649 246.865C768.612 246.024 769.544 245.182 770.477 244.309C770.601 244.184 770.725 244.091 770.85 243.966C771.813 243.062 772.745 242.127 773.647 241.192C773.709 241.129 773.771 241.036 773.864 240.973C774.828 239.976 775.76 238.947 776.661 237.918C790.025 222.519 798.106 202.38 798.044 180.403C798.044 166.562 806.155 153.999 818.742 148.356L823.373 146.268C835.68 140.75 850.287 142.652 860.263 151.786C875.741 166.001 896.377 174.667 918.971 174.667C941.566 174.667 960.99 166.468 976.312 153.001C987.283 143.337 1002.88 141.031 1016.19 147.016L1016.84 147.297C1030.85 153.594 1039.56 167.372 1039.9 182.616C1039.93 184.05 1039.99 185.515 1040.12 186.981C1043.13 229.626 1077.44 264.354 1119.93 267.72C1173.51 271.96 1218.04 227.288 1213.78 173.545C1210.4 131.024 1175.93 96.6705 1133.51 93.5531C1109.17 91.7762 1086.7 100.068 1069.89 114.751C1058.61 124.571 1042.6 126.753 1028.96 120.612C1015.07 114.377 1006.36 100.598 1006.02 85.3545C1005.96 82.3306 1005.74 79.2756 1005.34 76.1894C1000.43 36.63 968.48 4.98875 928.948 0.562086C876.487 -5.32974 831.857 35.8818 831.857 87.3496V87.5678C831.857 101.409 823.777 114.003 811.159 119.645L806.528 121.734C794.221 127.252 779.614 125.35 769.638 116.216C763.142 110.262 755.714 105.274 747.665 101.502C747.572 101.471 747.478 101.409 747.416 101.378C746.515 100.972 745.614 100.567 744.681 100.162C744.339 100.006 743.998 99.8814 743.656 99.7255C742.941 99.4449 742.195 99.1644 741.48 98.8838C740.921 98.6656 740.361 98.4474 739.802 98.2603C739.242 98.0733 738.683 97.8863 738.093 97.6992C737.347 97.4498 736.632 97.2004 735.886 96.9822C735.451 96.8575 734.985 96.7328 734.55 96.6081C733.679 96.3588 732.778 96.1094 731.908 95.8912C731.566 95.7976 731.193 95.7353 730.851 95.6418C729.888 95.4235 728.893 95.2053 727.93 94.9871C727.619 94.9248 727.308 94.8624 726.966 94.8001C725.972 94.613 724.946 94.426 723.921 94.3013C723.579 94.2389 723.268 94.2078 722.926 94.1454C721.963 94.0207 720.968 93.896 720.005 93.8025C719.57 93.7713 719.166 93.709 718.731 93.6778C718.326 93.6466 717.954 93.5843 717.55 93.5531C717.146 93.5531 716.71 93.5219 716.306 93.4908C715.56 93.4596 714.846 93.3973 714.1 93.3973C713.416 93.3973 712.732 93.3661 712.049 93.3349C711.707 93.3349 711.334 93.3349 710.992 93.3349C710.526 93.3349 710.06 93.3349 709.562 93.3661C708.972 93.3661 708.412 93.3661 707.822 93.3973C706.921 93.4284 706.019 93.4908 705.118 93.5531C704.621 93.5843 704.123 93.6155 703.626 93.6466C702.601 93.7402 701.575 93.8337 700.549 93.9584C700.208 93.9896 699.835 94.0207 699.493 94.0831C695.235 94.6442 691.07 95.5171 687.03 96.7017C686.968 96.7017 686.906 96.7328 686.844 96.764C685.569 97.1381 684.326 97.5434 683.052 97.9486C682.897 98.011 682.741 98.0733 682.555 98.1045C681.405 98.5097 680.255 98.915 679.136 99.3826C678.95 99.4449 678.763 99.5385 678.608 99.6008C677.489 100.037 676.37 100.536 675.282 101.035C675.127 101.097 674.941 101.191 674.785 101.253C673.666 101.783 672.547 102.313 671.429 102.874C671.304 102.936 671.211 102.999 671.087 103.03C669.906 103.653 668.725 104.308 667.544 104.963C662.82 107.706 658.375 110.855 654.273 114.377C644.483 122.825 631.306 125.849 619.092 122.7C617.041 122.171 614.99 121.454 613.032 120.581C599.139 114.346 590.437 100.567 590.095 85.3233C590.033 82.2994 589.816 79.2444 589.412 76.1582C589.318 75.4101 589.163 74.6931 589.039 73.9449C588.914 73.1032 588.759 72.2615 588.604 71.4198C588.231 69.3624 587.796 67.3361 587.267 65.341C587.205 65.1227 587.174 64.9357 587.112 64.7175C580.15 38.5628 561.223 17.1776 536.702 6.79682C536.578 6.73447 536.453 6.7033 536.36 6.64095C535.055 6.07982 533.718 5.58105 532.382 5.08227C531.232 4.67701 530.113 4.27175 528.932 3.89767C528 3.61711 527.037 3.33654 526.073 3.05598C524.488 2.61955 522.903 2.21429 521.287 1.87138C520.603 1.71551 519.919 1.59082 519.236 1.46612C517.34 1.09204 515.444 0.811475 513.486 0.562086C513.331 0.562086 513.175 0.499738 513.051 0.499738C512.616 0.437391 512.15 0.437391 511.715 0.375044C511.155 0.312696 510.627 0.250349 510.068 0.219175C509.788 0.219175 509.477 0.219175 509.197 0.188002C508.296 0.125654 507.395 0.0944807 506.493 0.063307C505.748 0.063307 504.971 0.000959702 504.225 0.000959702C503.386 0.000959702 502.546 0.000959702 501.707 0.000959702C500.899 0.000959702 500.122 0.000959706 499.314 0.063307C498.537 0.0944807 497.76 0.156828 496.983 0.219175C496.144 0.281523 495.305 0.34387 494.497 0.406217C493.782 0.468565 493.067 0.562086 492.353 0.655607C491.482 0.749128 490.581 0.873822 489.711 0.998517C489.058 1.09204 488.437 1.21673 487.815 1.34143C486.883 1.4973 485.95 1.68434 485.049 1.87138C484.49 1.99607 483.93 2.12077 483.402 2.24546C482.407 2.46368 481.444 2.71307 480.48 2.96246C480.014 3.08715 479.548 3.24302 479.113 3.36772C478.056 3.67945 477.031 3.96002 476.005 4.30293C475.663 4.42762 475.29 4.55231 474.948 4.67701C473.83 5.05109 472.711 5.45635 471.623 5.89278C471.405 5.9863 471.188 6.07982 470.939 6.17335C469.727 6.64095 468.515 7.13973 467.334 7.70085C467.272 7.70085 467.21 7.7632 467.148 7.79438C436.908 21.5731 415.899 52.1857 415.992 87.6301C415.992 101.471 407.88 114.003 395.294 119.677L390.663 121.765C378.356 127.283 363.749 125.381 353.772 116.248C338.295 102.032 317.659 93.3661 295.064 93.3661C272.47 93.3661 253.605 101.315 238.346 114.471C226.878 124.353 210.841 126.847 197.042 120.674C183.15 114.439 174.448 100.661 174.106 85.4168C174.075 83.7958 173.981 82.1436 173.857 80.5225C170.625 38.251 136.407 3.83532 94.14 0.468565C40.5602 -3.80223 -3.97575 40.9008 0.282048 94.6754Z" fill="url(#paint0_linear_107_2055)"/>
<g filter="url(#filter0_d_107_2055)">
<path d="M1190.54 191.15C1196.2 155.949 1172.34 122.811 1137.24 117.135C1102.15 111.459 1069.11 135.394 1063.46 170.595C1057.8 205.796 1081.66 238.933 1116.75 244.61C1151.85 250.286 1184.88 226.351 1190.54 191.15Z" fill="white"/>
</g>
<g filter="url(#filter1_d_107_2055)">
<path d="M918.972 152.098C954.519 152.098 983.336 123.193 983.336 87.5372C983.336 51.8814 954.519 22.9766 918.972 22.9766C883.424 22.9766 854.607 51.8814 854.607 87.5372C854.607 123.193 883.424 152.098 918.972 152.098Z" fill="white"/>
</g>
<g filter="url(#filter2_d_107_2055)">
<path d="M710.992 245.432C746.54 245.432 775.356 216.527 775.356 180.871C775.356 145.215 746.54 116.311 710.992 116.311C675.445 116.311 646.628 145.215 646.628 180.871C646.628 216.527 675.445 245.432 710.992 245.432Z" fill="white"/>
</g>
<g filter="url(#filter3_d_107_2055)">
<path d="M503.013 152.098C538.56 152.098 567.377 123.193 567.377 87.5372C567.377 51.8814 538.56 22.9766 503.013 22.9766C467.465 22.9766 438.648 51.8814 438.648 87.5372C438.648 123.193 467.465 152.098 503.013 152.098Z" fill="white"/>
</g>
<g filter="url(#filter4_d_107_2055)">
<path d="M295.034 245.432C330.581 245.432 359.398 216.527 359.398 180.871C359.398 145.215 330.581 116.311 295.034 116.311C259.487 116.311 230.67 145.215 230.67 180.871C230.67 216.527 259.487 245.432 295.034 245.432Z" fill="white"/>
</g>
<g filter="url(#filter5_d_107_2055)">
<path d="M87.0536 152.098C122.601 152.098 151.418 123.193 151.418 87.5372C151.418 51.8814 122.601 22.9766 87.0536 22.9766C51.5063 22.9766 22.6895 51.8814 22.6895 87.5372C22.6895 123.193 51.5063 152.098 87.0536 152.098Z" fill="white"/>
</g>
<defs>
<filter id="filter0_d_107_2055" x="1061.62" y="115.303" width="132.748" height="133.141" filterUnits="userSpaceOnUse" color-interpolation-filters="sRGB">
<feFlood flood-opacity="0" result="BackgroundImageFix"/>
<feColorMatrix in="SourceAlpha" type="matrix" values="0 0 0 0 0 0 0 0 0 0 0 0 0 0 0 0 0 0 127 0" result="hardAlpha"/>
<feOffset dx="1" dy="1"/>
<feGaussianBlur stdDeviation="1"/>
<feColorMatrix type="matrix" values="0 0 0 0 0 0 0 0 0 0 0 0 0 0 0 0 0 0 0.1 0"/>
<feBlend mode="normal" in2="BackgroundImageFix" result="effect1_dropShadow_107_2055"/>
<feBlend mode="normal" in="SourceGraphic" in2="effect1_dropShadow_107_2055" result="shape"/>
</filter>
<filter id="filter1_d_107_2055" x="853.607" y="21.9766" width="132.728" height="133.121" filterUnits="userSpaceOnUse" color-interpolation-filters="sRGB">
<feFlood flood-opacity="0" result="BackgroundImageFix"/>
<feColorMatrix in="SourceAlpha" type="matrix" values="0 0 0 0 0 0 0 0 0 0 0 0 0 0 0 0 0 0 127 0" result="hardAlpha"/>
<feOffset dx="1" dy="1"/>
<feGaussianBlur stdDeviation="1"/>
<feColorMatrix type="matrix" values="0 0 0 0 0 0 0 0 0 0 0 0 0 0 0 0 0 0 0.1 0"/>
<feBlend mode="normal" in2="BackgroundImageFix" result="effect1_dropShadow_107_2055"/>
<feBlend mode="normal" in="SourceGraphic" in2="effect1_dropShadow_107_2055" result="shape"/>
</filter>
<filter id="filter2_d_107_2055" x="645.628" y="115.311" width="132.728" height="133.121" filterUnits="userSpaceOnUse" color-interpolation-filters="sRGB">
<feFlood flood-opacity="0" result="BackgroundImageFix"/>
<feColorMatrix in="SourceAlpha" type="matrix" values="0 0 0 0 0 0 0 0 0 0 0 0 0 0 0 0 0 0 127 0" result="hardAlpha"/>
<feOffset dx="1" dy="1"/>
<feGaussianBlur stdDeviation="1"/>
<feColorMatrix type="matrix" values="0 0 0 0 0 0 0 0 0 0 0 0 0 0 0 0 0 0 0.1 0"/>
<feBlend mode="normal" in2="BackgroundImageFix" result="effect1_dropShadow_107_2055"/>
<feBlend mode="normal" in="SourceGraphic" in2="effect1_dropShadow_107_2055" result="shape"/>
</filter>
<filter id="filter3_d_107_2055" x="437.648" y="21.9766" width="132.728" height="133.121" filterUnits="userSpaceOnUse" color-interpolation-filters="sRGB">
<feFlood flood-opacity="0" result="BackgroundImageFix"/>
<feColorMatrix in="SourceAlpha" type="matrix" values="0 0 0 0 0 0 0 0 0 0 0 0 0 0 0 0 0 0 127 0" result="hardAlpha"/>
<feOffset dx="1" dy="1"/>
<feGaussianBlur stdDeviation="1"/>
<feColorMatrix type="matrix" values="0 0 0 0 0 0 0 0 0 0 0 0 0 0 0 0 0 0 0.1 0"/>
<feBlend mode="normal" in2="BackgroundImageFix" result="effect1_dropShadow_107_2055"/>
<feBlend mode="normal" in="SourceGraphic" in2="effect1_dropShadow_107_2055" result="shape"/>
</filter>
<filter id="filter4_d_107_2055" x="229.67" y="115.311" width="132.728" height="133.121" filterUnits="userSpaceOnUse" color-interpolation-filters="sRGB">
<feFlood flood-opacity="0" result="BackgroundImageFix"/>
<feColorMatrix in="SourceAlpha" type="matrix" values="0 0 0 0 0 0 0 0 0 0 0 0 0 0 0 0 0 0 127 0" result="hardAlpha"/>
<feOffset dx="1" dy="1"/>
<feGaussianBlur stdDeviation="1"/>
<feColorMatrix type="matrix" values="0 0 0 0 0 0 0 0 0 0 0 0 0 0 0 0 0 0 0.1 0"/>
<feBlend mode="normal" in2="BackgroundImageFix" result="effect1_dropShadow_107_2055"/>
<feBlend mode="normal" in="SourceGraphic" in2="effect1_dropShadow_107_2055" result="shape"/>
</filter>
<filter id="filter5_d_107_2055" x="21.6895" y="21.9766" width="132.729" height="133.121" filterUnits="userSpaceOnUse" color-interpolation-filters="sRGB">
<feFlood flood-opacity="0" result="BackgroundImageFix"/>
<feColorMatrix in="SourceAlpha" type="matrix" values="0 0 0 0 0 0 0 0 0 0 0 0 0 0 0 0 0 0 127 0" result="hardAlpha"/>
<feOffset dx="1" dy="1"/>
<feGaussianBlur stdDeviation="1"/>
<feColorMatrix type="matrix" values="0 0 0 0 0 0 0 0 0 0 0 0 0 0 0 0 0 0 0.1 0"/>
<feBlend mode="normal" in2="BackgroundImageFix" result="effect1_dropShadow_107_2055"/>
<feBlend mode="normal" in="SourceGraphic" in2="effect1_dropShadow_107_2055" result="shape"/>
</filter>
<linearGradient id="paint0_linear_107_2055" x1="76.5494" y1="367.476" x2="1290.84" y2="-163.308" gradientUnits="userSpaceOnUse">
<stop stop-color="#FF40E1"/>
<stop offset="1" stop-color="#FFB43C"/>
</linearGradient>
</defs>
</svg>
