<svg width="120" height="20" viewBox="0 0 120 20" fill="none" xmlns="http://www.w3.org/2000/svg">
<path d="M9.10337 3.48265C9.47021 2.73948 10.53 2.73948 10.8968 3.48265L12.3426 6.41177C12.4882 6.70662 12.7694 6.91108 13.0947 6.95863L16.3296 7.43147C17.1495 7.55131 17.4763 8.55915 16.8827 9.13731L14.5435 11.4157C14.3077 11.6454 14.2 11.9766 14.2557 12.3011L14.8075 15.5186C14.9476 16.3356 14.0901 16.9586 13.3564 16.5728L10.4655 15.0525C10.1741 14.8992 9.82601 14.8992 9.53463 15.0525L6.64371 16.5728C5.91008 16.9586 5.05254 16.3356 5.19265 15.5186L5.7445 12.3011C5.80016 11.9766 5.6925 11.6454 5.45663 11.4157L3.11743 9.13731C2.52383 8.55915 2.85062 7.55131 3.67053 7.43147L6.90545 6.95863C7.2308 6.91108 7.51199 6.70662 7.65753 6.41177L9.10337 3.48265Z" fill="#FFB800"/>
<rect width="20" height="20" transform="translate(25)" fill="white"/>
<path d="M34.1034 3.48265C34.4702 2.73948 35.53 2.73948 35.8968 3.48265L37.3426 6.41177C37.4882 6.70662 37.7694 6.91108 38.0947 6.95863L41.3296 7.43147C42.1495 7.55131 42.4763 8.55915 41.8827 9.13731L39.5435 11.4157C39.3077 11.6454 39.2 11.9766 39.2557 12.3011L39.8075 15.5186C39.9476 16.3356 39.0901 16.9586 38.3564 16.5728L35.4655 15.0525C35.1741 14.8992 34.826 14.8992 34.5346 15.0525L31.6437 16.5728C30.9101 16.9586 30.0525 16.3356 30.1927 15.5186L30.7445 12.3011C30.8002 11.9766 30.6925 11.6454 30.4566 11.4157L28.1174 9.13731C27.5238 8.55915 27.8506 7.55131 28.6705 7.43147L31.9054 6.95863C32.2308 6.91108 32.512 6.70662 32.6575 6.41177L34.1034 3.48265Z" fill="#FFB800" stroke="#FFB800" stroke-linecap="round" stroke-linejoin="round"/>
<path d="M59.1034 3.48265C59.4702 2.73948 60.53 2.73948 60.8968 3.48265L62.3426 6.41177C62.4882 6.70662 62.7694 6.91108 63.0947 6.95863L66.3296 7.43147C67.1495 7.55131 67.4763 8.55915 66.8827 9.13731L64.5435 11.4157C64.3077 11.6454 64.2 11.9766 64.2557 12.3011L64.8075 15.5186C64.9476 16.3356 64.0901 16.9586 63.3564 16.5728L60.4655 15.0525C60.1741 14.8992 59.826 14.8992 59.5346 15.0525L56.6437 16.5728C55.9101 16.9586 55.0525 16.3356 55.1927 15.5186L55.7445 12.3011C55.8002 11.9766 55.6925 11.6454 55.4566 11.4157L53.1174 9.13731C52.5238 8.55915 52.8506 7.55131 53.6705 7.43147L56.9054 6.95863C57.2308 6.91108 57.512 6.70662 57.6575 6.41177L59.1034 3.48265Z" fill="#FFB800" stroke="#FFB800" stroke-linecap="round" stroke-linejoin="round"/>
<path d="M84.1034 3.48265C84.4702 2.73948 85.53 2.73948 85.8968 3.48265L87.3426 6.41177C87.4882 6.70662 87.7694 6.91108 88.0947 6.95863L91.3296 7.43147C92.1495 7.55131 92.4763 8.55915 91.8827 9.13731L89.5435 11.4157C89.3077 11.6454 89.2 11.9766 89.2557 12.3011L89.8075 15.5186C89.9476 16.3356 89.0901 16.9586 88.3564 16.5728L85.4655 15.0525C85.1741 14.8992 84.826 14.8992 84.5346 15.0525L81.6437 16.5728C80.9101 16.9586 80.0525 16.3356 80.1927 15.5186L80.7445 12.3011C80.8002 11.9766 80.6925 11.6454 80.4566 11.4157L78.1174 9.13731C77.5238 8.55915 77.8506 7.55131 78.6705 7.43147L81.9054 6.95863C82.2308 6.91108 82.512 6.70662 82.6575 6.41177L84.1034 3.48265Z" fill="#FFB800" stroke="#FFB800" stroke-linecap="round" stroke-linejoin="round"/>
<path d="M109.103 3.48265C109.47 2.73948 110.53 2.73948 110.897 3.48265L112.343 6.41177C112.488 6.70662 112.769 6.91108 113.095 6.95863L116.33 7.43147C117.15 7.55131 117.476 8.55915 116.883 9.13731L114.544 11.4157C114.308 11.6454 114.2 11.9766 114.256 12.3011L114.808 15.5186C114.948 16.3356 114.09 16.9586 113.356 16.5728L110.466 15.0525C110.174 14.8992 109.826 14.8992 109.535 15.0525L106.644 16.5728C105.91 16.9586 105.053 16.3356 105.193 15.5186L105.745 12.3011C105.8 11.9766 105.692 11.6454 105.457 11.4157L103.117 9.13731C102.524 8.55915 102.851 7.55131 103.671 7.43147L106.905 6.95863C107.231 6.91108 107.512 6.70662 107.658 6.41177L109.103 3.48265Z" stroke="#FFB800" stroke-linecap="round" stroke-linejoin="round"/>
</svg>
