<svg width="222" height="37" viewBox="0 0 222 37" fill="none" xmlns="http://www.w3.org/2000/svg">
<path d="M193.553 0.433594H184.034C181.784 0.433594 179.599 0.914871 177.537 1.86327C175.552 2.78336 173.763 4.09272 172.232 5.76304C170.702 7.43335 169.496 9.3797 168.659 11.5525C167.791 13.7961 167.35 16.1813 167.35 18.6443C167.35 21.1073 167.791 23.4854 168.659 25.7361C169.502 27.9018 170.702 29.8552 172.232 31.5255C173.763 33.1959 175.546 34.5123 177.537 35.4253C179.592 36.3737 181.777 36.855 184.034 36.855H193.553C197.502 36.855 200.718 33.3445 200.718 29.0342V8.25436C200.718 3.94409 197.502 0.433594 193.553 0.433594ZM193.553 31.2141H184.034C177.686 31.2141 172.518 25.5733 172.518 18.6443C172.518 11.7153 177.686 6.07445 184.034 6.07445H193.553C194.655 6.07445 195.55 7.05116 195.55 8.25436V15.8274H185.389C183.963 15.8274 182.802 17.0872 182.802 18.6514C182.802 20.2155 183.956 21.4753 185.389 21.4753H195.55V29.0484C195.55 30.2516 194.655 31.2283 193.553 31.2283V31.2141Z" fill="#FF8A00"/>
<path d="M23.3447 3.8382C22.787 2.78363 21.9894 1.92724 21.0298 1.34688C20.1284 0.801901 19.1039 0.511719 18.0664 0.511719C17.0289 0.511719 16.0044 0.801901 15.103 1.34688C14.1434 1.92724 13.3458 2.79071 12.7881 3.8382L0.824448 26.4653C0.266792 27.5128 -0.0185208 28.7019 0.000932323 29.898C0.0203854 31.0233 0.305698 32.1345 0.824448 33.1112C1.3432 34.095 2.08242 34.916 2.96429 35.4964C3.90453 36.1121 4.98742 36.4377 6.10273 36.4377H30.0366C31.1519 36.4377 32.2348 36.1121 33.175 35.4964C34.0569 34.916 34.7961 34.095 35.3148 33.1112C35.8336 32.1274 36.1189 31.0162 36.1383 29.898C36.1578 28.7019 35.8725 27.5128 35.3148 26.4653L23.3447 3.8382ZM30.8341 30.2943C30.7369 30.4854 30.4969 30.7968 30.0301 30.7968H6.10273C5.63585 30.7968 5.40242 30.4783 5.29867 30.2943C5.19492 30.1103 5.06523 29.721 5.29867 29.2822L17.2688 6.65509C17.5023 6.21628 17.8719 6.15258 18.0729 6.15258C18.2739 6.15258 18.6435 6.21628 18.8769 6.65509L30.8471 29.2822C31.0805 29.721 30.9444 30.1032 30.8471 30.2943H30.8341Z" fill="black"/>
<path d="M69.3578 11.6306C68.5148 9.4649 67.3152 7.51148 65.7849 5.84116C64.2546 4.17084 62.4714 2.85441 60.4807 1.9414C58.4252 0.992997 56.2399 0.511719 53.9834 0.511719H44.4643C40.5153 0.511719 37.2991 4.02221 37.2991 8.33248V29.1124C37.2991 33.4226 40.5153 36.9331 44.4643 36.9331H53.9834C56.2334 36.9331 58.4187 36.4518 60.4807 35.5034C62.4649 34.5833 64.2546 33.274 65.7849 31.6037C67.3152 29.9334 68.5213 27.987 69.3578 25.8142C70.2267 23.5706 70.6677 21.1854 70.6677 18.7224C70.6677 16.2594 70.2267 13.8813 69.3578 11.6306ZM53.9834 31.2852H44.4643C43.362 31.2852 42.4671 30.3085 42.4671 29.1053V8.33248C42.4671 7.12929 43.362 6.15258 44.4643 6.15258H53.9834C60.3316 6.15258 65.4996 11.7934 65.4996 18.7224C65.4996 25.6514 60.3316 31.2923 53.9834 31.2923V31.2852Z" fill="black"/>
<path d="M107.279 4.00031C106.76 3.01652 106.021 2.19552 105.139 1.61515C104.199 0.999398 103.116 0.673828 102 0.673828H78.0666C76.9513 0.673828 75.8684 0.999398 74.9282 1.61515C74.0463 2.19552 73.3071 3.01652 72.7883 4.00031C72.2696 4.9841 71.9843 6.09528 71.9648 7.21354C71.9453 8.40966 72.2307 9.5987 72.7883 10.6462L84.7585 33.2733C85.3161 34.3279 86.1137 35.1843 87.0734 35.7646C87.9747 36.3096 88.9993 36.5998 90.0367 36.5998C91.0742 36.5998 92.0988 36.3096 93.0001 35.7646C93.9598 35.1843 94.7574 34.3208 95.315 33.2733L107.285 10.6462C107.843 9.59162 108.128 8.40966 108.109 7.21354C108.089 6.0882 107.804 4.97702 107.285 4.00031H107.279ZM102.804 7.8293L90.8343 30.4564C90.6009 30.8952 90.2313 30.9589 90.0303 30.9589C89.8292 30.9589 89.4596 30.8952 89.2262 30.4564L77.256 7.8293C77.0226 7.39048 77.1588 7.00829 77.256 6.8172C77.3533 6.6261 77.5932 6.31469 78.0601 6.31469H101.994C102.461 6.31469 102.694 6.63318 102.798 6.8172C102.902 7.00122 103.031 7.39048 102.798 7.8293H102.804Z" fill="#FF8A00"/>
<path d="M160.606 5.77011C159.076 4.0998 157.293 2.78336 155.302 1.87035C153.24 0.914871 151.055 0.433594 148.805 0.433594C146.555 0.433594 144.369 0.914871 142.307 1.86327C140.323 2.78336 138.533 4.09272 137.003 5.76304C135.473 7.43335 134.267 9.3797 133.43 11.5525C132.561 13.7961 132.12 16.1813 132.12 18.6443V29.0342C132.12 33.3445 135.337 36.855 139.286 36.855H158.324C162.273 36.855 165.489 33.3445 165.489 29.0342V18.6443C165.489 16.1884 165.048 13.8032 164.179 11.5525C163.336 9.38677 162.137 7.43335 160.606 5.76304V5.77011ZM160.327 29.0342C160.327 30.2374 159.433 31.2141 158.33 31.2141H139.292C138.19 31.2141 137.295 30.2374 137.295 29.0342V18.6443C137.295 11.7153 142.463 6.07445 148.811 6.07445C155.159 6.07445 160.327 11.7153 160.327 18.6443V29.0342Z" fill="#FF8A00"/>
<path d="M122.951 0.475828L116.914 0.46875C113.289 0.858019 110.443 4.20573 110.443 8.2612V29.0411C110.443 33.0965 113.289 36.4443 116.914 36.8264H122.951C126.576 36.4443 129.422 33.1036 129.422 29.0411V8.25412C129.422 4.19865 126.576 0.850941 122.951 0.46875V0.475828ZM124.254 29.0411C124.254 29.9753 123.71 30.7751 122.951 31.0865H116.914C116.155 30.7751 115.611 29.9824 115.611 29.0411V8.25412C115.611 7.31988 116.155 6.52011 116.914 6.20869L122.951 6.20162C123.71 6.52011 124.254 7.31988 124.254 8.25412V29.034V29.0411Z" fill="#FF8A00"/>
<path d="M215.529 0.475828L209.492 0.46875C205.867 0.858019 203.02 4.20573 203.02 8.2612V29.0411C203.02 33.0965 205.867 36.4443 209.492 36.8264H215.529C219.153 36.4443 222 33.1036 222 29.0411V8.25412C222 4.19865 219.153 0.850941 215.529 0.46875V0.475828ZM216.832 29.0411C216.832 29.9753 216.287 30.7751 215.529 31.0865H209.492C208.733 30.7751 208.188 29.9824 208.188 29.0411V8.25412C208.188 7.31988 208.733 6.52011 209.492 6.20869L215.529 6.20162C216.287 6.52011 216.832 7.31988 216.832 8.25412V29.034V29.0411Z" fill="#FF8A00"/>
</svg>
