<svg width="38" height="38" viewBox="0 0 38 38" fill="none" xmlns="http://www.w3.org/2000/svg">
<path d="M19.0001 33.2497C17.0002 31.5439 15.1466 29.6738 13.4584 27.6589C10.9251 24.6332 7.91675 20.127 7.91675 15.833C7.91565 13.6401 8.56514 11.496 9.78301 9.67232C11.0009 7.84861 12.7324 6.42717 14.7584 5.58791C16.7845 4.74865 19.0139 4.52928 21.1647 4.95758C23.3154 5.38587 25.2908 6.44257 26.8407 7.99395C27.8727 9.02131 28.6906 10.2431 29.2472 11.5887C29.8038 12.9343 30.088 14.3769 30.0834 15.833C30.0834 20.127 27.0751 24.6332 24.5417 27.6589C22.8536 29.6738 20.9999 31.5439 19.0001 33.2497ZM19.0001 11.083C17.7403 11.083 16.5321 11.5835 15.6413 12.4743C14.7505 13.3651 14.2501 14.5733 14.2501 15.833C14.2501 17.0928 14.7505 18.301 15.6413 19.1918C16.5321 20.0826 17.7403 20.583 19.0001 20.583C20.2599 20.583 21.468 20.0826 22.3588 19.1918C23.2496 18.301 23.7501 17.0928 23.7501 15.833C23.7501 14.5733 23.2496 13.3651 22.3588 12.4743C21.468 11.5835 20.2599 11.083 19.0001 11.083Z" fill="#FF8A00"/>
</svg>
