<svg width="1215" height="269" viewBox="0 0 1215 269" fill="none" xmlns="http://www.w3.org/2000/svg">
<path d="M0.282048 94.6754C3.66964 137.196 38.1671 171.55 80.5586 174.636C104.893 176.413 127.332 168.089 144.146 153.438C155.427 143.618 171.433 141.436 185.077 147.546C198.969 153.781 207.671 167.559 208.013 182.803C208.044 184.424 208.137 186.045 208.261 187.698C211.556 230.624 246.55 265.258 289.408 268.001C339.973 271.243 382.147 230.873 382.147 180.839V180.621C382.147 166.78 390.228 154.186 402.846 148.543L407.476 146.455C419.784 140.937 434.391 142.839 444.367 151.973C450.862 157.927 458.29 162.915 466.371 166.687C466.464 166.718 466.526 166.78 466.619 166.811C467.521 167.216 468.422 167.622 469.323 167.996C469.665 168.152 470.007 168.308 470.349 168.432C471.064 168.713 471.778 168.993 472.493 169.274C473.053 169.492 473.612 169.71 474.172 169.897C474.731 170.084 475.29 170.271 475.85 170.459C476.596 170.708 477.342 170.957 478.087 171.176C478.523 171.3 478.958 171.425 479.393 171.55C480.263 171.799 481.164 172.048 482.066 172.267C482.407 172.36 482.78 172.422 483.122 172.516C484.086 172.734 485.08 172.952 486.075 173.171C486.385 173.233 486.696 173.295 487.007 173.358C488.002 173.545 489.027 173.732 490.053 173.856C490.395 173.919 490.705 173.95 491.047 174.012C492.011 174.137 493.005 174.262 493.969 174.355C494.404 174.386 494.808 174.449 495.243 174.48C495.647 174.511 496.051 174.573 496.455 174.605C496.859 174.605 497.294 174.636 497.698 174.667C498.444 174.698 499.159 174.761 499.905 174.761C500.589 174.761 501.272 174.792 501.956 174.823C502.298 174.823 502.64 174.823 503.013 174.823C503.479 174.823 503.945 174.823 504.411 174.792C505.002 174.792 505.623 174.792 506.214 174.761C507.115 174.729 507.985 174.667 508.855 174.605C509.384 174.573 509.912 174.542 510.409 174.48C511.404 174.386 512.367 174.293 513.362 174.168C513.766 174.106 514.17 174.075 514.574 174.012C515.786 173.856 516.967 173.669 518.148 173.451C518.334 173.451 518.49 173.389 518.676 173.358C522.934 172.578 527.068 171.487 531.077 170.116C531.077 170.116 531.077 170.116 531.108 170.116C532.413 169.679 533.687 169.18 534.962 168.682C535.055 168.65 535.179 168.588 535.272 168.557C536.453 168.089 537.634 167.591 538.815 167.061C538.94 166.998 539.064 166.936 539.219 166.874C540.369 166.344 541.488 165.814 542.607 165.221C542.731 165.159 542.856 165.097 542.949 165.034C544.099 164.442 545.218 163.819 546.305 163.195C546.399 163.133 546.461 163.102 546.554 163.039C547.704 162.353 548.854 161.668 549.973 160.919C549.973 160.919 550.004 160.919 550.035 160.888C553.671 158.55 557.121 155.963 560.353 153.126C560.788 152.752 561.254 152.378 561.72 152.004C572.878 143.337 588.013 141.654 600.973 147.484C614.865 153.718 623.567 167.497 623.909 182.741C623.94 184.362 624.033 185.983 624.158 187.635C625.774 208.771 635.097 227.88 649.207 242.158C649.207 242.158 649.207 242.158 649.238 242.189C650.046 243 650.885 243.81 651.725 244.59C651.818 244.683 651.942 244.777 652.035 244.901C652.781 245.618 653.558 246.304 654.366 246.959C654.553 247.146 654.77 247.302 654.957 247.489C655.672 248.081 656.386 248.673 657.101 249.234C657.412 249.484 657.692 249.702 658.003 249.951C658.655 250.45 659.308 250.949 659.961 251.417C660.333 251.697 660.737 251.978 661.142 252.258C661.732 252.664 662.354 253.069 662.944 253.474C663.41 253.786 663.877 254.098 664.374 254.409C664.933 254.752 665.493 255.095 666.052 255.438C666.611 255.781 667.14 256.093 667.699 256.436C668.227 256.747 668.725 257.028 669.253 257.308C669.875 257.651 670.465 257.994 671.087 258.306C671.584 258.555 672.081 258.805 672.579 259.054C673.231 259.397 673.915 259.709 674.568 260.02C675.034 260.239 675.531 260.457 675.997 260.675C676.712 260.987 677.396 261.299 678.111 261.579C678.577 261.766 679.043 261.953 679.54 262.14C680.255 262.421 681.001 262.701 681.716 262.982C682.213 263.169 682.679 263.325 683.176 263.481C683.922 263.73 684.637 263.98 685.383 264.198C685.88 264.354 686.409 264.509 686.906 264.634C687.652 264.852 688.367 265.071 689.112 265.258C689.641 265.414 690.2 265.538 690.729 265.663C691.443 265.85 692.158 266.006 692.873 266.162C693.463 266.286 694.054 266.411 694.644 266.505C695.328 266.629 696.012 266.754 696.727 266.879C697.348 266.972 698.001 267.066 698.654 267.159C699.306 267.253 699.959 267.346 700.612 267.409C701.295 267.502 702.01 267.565 702.694 267.627C703.098 267.658 703.502 267.72 703.937 267.752C704.124 267.752 704.279 267.752 704.465 267.752C704.745 267.752 705.025 267.814 705.305 267.814C706.019 267.845 706.703 267.876 707.418 267.907C708.102 267.907 708.785 267.97 709.438 267.97C710.339 267.97 711.272 267.97 712.173 267.97C712.888 267.97 713.603 267.97 714.286 267.939C715.125 267.907 715.964 267.845 716.804 267.783C717.549 267.72 718.326 267.689 719.072 267.627C719.787 267.565 720.502 267.471 721.217 267.377C722.056 267.284 722.926 267.19 723.765 267.066C724.107 267.003 724.449 266.941 724.791 266.879C728.8 266.224 732.716 265.32 736.539 264.135C736.694 264.104 736.818 264.042 736.974 264.011C738.155 263.637 739.305 263.231 740.455 262.826C740.734 262.733 740.983 262.639 741.263 262.546C742.382 262.14 743.469 261.673 744.526 261.236C744.806 261.112 745.116 260.987 745.396 260.862C746.453 260.395 747.51 259.896 748.566 259.397C748.846 259.272 749.157 259.116 749.436 258.992C750.493 258.462 751.519 257.932 752.513 257.371C752.793 257.215 753.073 257.059 753.352 256.903C754.378 256.342 755.372 255.719 756.367 255.126C756.616 254.97 756.895 254.814 757.144 254.659C758.138 254.035 759.133 253.381 760.096 252.695C760.314 252.539 760.563 252.383 760.78 252.227C761.775 251.541 762.738 250.824 763.702 250.107C763.888 249.951 764.106 249.796 764.292 249.64C765.255 248.891 766.219 248.112 767.151 247.302C767.307 247.177 767.493 247.021 767.649 246.865C768.612 246.024 769.544 245.182 770.477 244.309C770.601 244.184 770.725 244.091 770.85 243.966C771.813 243.062 772.745 242.127 773.647 241.192C773.709 241.129 773.771 241.036 773.864 240.973C774.828 239.976 775.76 238.947 776.661 237.918C790.025 222.519 798.106 202.38 798.044 180.403C798.044 166.562 806.155 153.999 818.742 148.356L823.373 146.268C835.68 140.75 850.287 142.652 860.263 151.786C875.741 166.001 896.377 174.667 918.971 174.667C941.566 174.667 960.99 166.468 976.312 153.001C987.283 143.337 1002.88 141.031 1016.19 147.016L1016.84 147.297C1030.85 153.594 1039.56 167.372 1039.9 182.616C1039.93 184.05 1039.99 185.515 1040.12 186.981C1043.13 229.626 1077.44 264.354 1119.93 267.72C1173.51 271.96 1218.04 227.288 1213.78 173.545C1210.4 131.024 1175.93 96.6705 1133.51 93.5531C1109.17 91.7762 1086.7 100.068 1069.89 114.751C1058.61 124.571 1042.6 126.753 1028.96 120.612C1015.07 114.377 1006.36 100.598 1006.02 85.3545C1005.96 82.3306 1005.74 79.2756 1005.34 76.1894C1000.43 36.63 968.48 4.98875 928.948 0.562086C876.487 -5.32974 831.857 35.8818 831.857 87.3496V87.5678C831.857 101.409 823.777 114.003 811.159 119.645L806.528 121.734C794.221 127.252 779.614 125.35 769.638 116.216C763.142 110.262 755.714 105.274 747.665 101.502C747.572 101.471 747.478 101.409 747.416 101.378C746.515 100.972 745.614 100.567 744.681 100.162C744.339 100.006 743.998 99.8814 743.656 99.7255C742.941 99.4449 742.195 99.1644 741.48 98.8838C740.921 98.6656 740.361 98.4474 739.802 98.2603C739.242 98.0733 738.683 97.8863 738.093 97.6992C737.347 97.4498 736.632 97.2004 735.886 96.9822C735.451 96.8575 734.985 96.7328 734.55 96.6081C733.679 96.3588 732.778 96.1094 731.908 95.8912C731.566 95.7976 731.193 95.7353 730.851 95.6418C729.888 95.4235 728.893 95.2053 727.93 94.9871C727.619 94.9248 727.308 94.8624 726.966 94.8001C725.972 94.613 724.946 94.426 723.921 94.3013C723.579 94.2389 723.268 94.2078 722.926 94.1454C721.963 94.0207 720.968 93.896 720.005 93.8025C719.57 93.7713 719.166 93.709 718.731 93.6778C718.326 93.6466 717.954 93.5843 717.55 93.5531C717.146 93.5531 716.71 93.5219 716.306 93.4908C715.56 93.4596 714.846 93.3973 714.1 93.3973C713.416 93.3973 712.732 93.3661 712.049 93.3349C711.707 93.3349 711.334 93.3349 710.992 93.3349C710.526 93.3349 710.06 93.3349 709.562 93.3661C708.972 93.3661 708.412 93.3661 707.822 93.3973C706.921 93.4284 706.019 93.4908 705.118 93.5531C704.621 93.5843 704.123 93.6155 703.626 93.6466C702.601 93.7402 701.575 93.8337 700.549 93.9584C700.208 93.9896 699.835 94.0207 699.493 94.0831C695.235 94.6442 691.07 95.5171 687.03 96.7017C686.968 96.7017 686.906 96.7328 686.844 96.764C685.569 97.1381 684.326 97.5434 683.052 97.9486C682.897 98.011 682.741 98.0733 682.555 98.1045C681.405 98.5097 680.255 98.915 679.136 99.3826C678.95 99.4449 678.763 99.5385 678.608 99.6008C677.489 100.037 676.37 100.536 675.282 101.035C675.127 101.097 674.941 101.191 674.785 101.253C673.666 101.783 672.547 102.313 671.429 102.874C671.304 102.936 671.211 102.999 671.087 103.03C669.906 103.653 668.725 104.308 667.544 104.963C662.82 107.706 658.375 110.855 654.273 114.377C644.483 122.825 631.306 125.849 619.092 122.7C617.041 122.171 614.99 121.454 613.032 120.581C599.139 114.346 590.437 100.567 590.095 85.3233C590.033 82.2994 589.816 79.2444 589.412 76.1582C589.318 75.4101 589.163 74.6931 589.039 73.9449C588.914 73.1032 588.759 72.2615 588.604 71.4198C588.231 69.3624 587.796 67.3361 587.267 65.341C587.205 65.1227 587.174 64.9357 587.112 64.7175C580.15 38.5628 561.223 17.1776 536.702 6.79682C536.578 6.73447 536.453 6.7033 536.36 6.64095C535.055 6.07982 533.718 5.58105 532.382 5.08227C531.232 4.67701 530.113 4.27175 528.932 3.89767C528 3.61711 527.037 3.33654 526.073 3.05598C524.488 2.61955 522.903 2.21429 521.287 1.87138C520.603 1.71551 519.919 1.59082 519.236 1.46612C517.34 1.09204 515.444 0.811475 513.486 0.562086C513.331 0.562086 513.175 0.499738 513.051 0.499738C512.616 0.437391 512.15 0.437391 511.715 0.375044C511.155 0.312696 510.627 0.250349 510.068 0.219175C509.788 0.219175 509.477 0.219175 509.197 0.188002C508.296 0.125654 507.395 0.0944807 506.493 0.063307C505.748 0.063307 504.971 0.000959702 504.225 0.000959702C503.386 0.000959702 502.546 0.000959702 501.707 0.000959702C500.899 0.000959702 500.122 0.000959706 499.314 0.063307C498.537 0.0944807 497.76 0.156828 496.983 0.219175C496.144 0.281523 495.305 0.34387 494.497 0.406217C493.782 0.468565 493.067 0.562086 492.353 0.655607C491.482 0.749128 490.581 0.873822 489.711 0.998517C489.058 1.09204 488.437 1.21673 487.815 1.34143C486.883 1.4973 485.95 1.68434 485.049 1.87138C484.49 1.99607 483.93 2.12077 483.402 2.24546C482.407 2.46368 481.444 2.71307 480.48 2.96246C480.014 3.08715 479.548 3.24302 479.113 3.36772C478.056 3.67945 477.031 3.96002 476.005 4.30293C475.663 4.42762 475.29 4.55231 474.948 4.67701C473.83 5.05109 472.711 5.45635 471.623 5.89278C471.405 5.9863 471.188 6.07982 470.939 6.17335C469.727 6.64095 468.515 7.13973 467.334 7.70085C467.272 7.70085 467.21 7.7632 467.148 7.79438C436.908 21.5731 415.899 52.1857 415.992 87.6301C415.992 101.471 407.88 114.003 395.294 119.677L390.663 121.765C378.356 127.283 363.749 125.381 353.772 116.248C338.295 102.032 317.659 93.3661 295.064 93.3661C272.47 93.3661 253.605 101.315 238.346 114.471C226.878 124.353 210.841 126.847 197.042 120.674C183.15 114.439 174.448 100.661 174.106 85.4168C174.075 83.7958 173.981 82.1436 173.857 80.5225C170.625 38.251 136.407 3.83532 94.14 0.468565C40.5602 -3.80223 -3.97575 40.9008 0.282048 94.6754Z" fill="url(#paint0_linear_185_579)"/>
<g filter="url(#filter0_d_185_579)">
<path d="M1190.54 191.15C1196.2 155.949 1172.34 122.811 1137.24 117.135C1102.15 111.459 1069.11 135.394 1063.46 170.595C1057.8 205.796 1081.66 238.933 1116.75 244.61C1151.85 250.286 1184.88 226.351 1190.54 191.15Z" fill="white"/>
</g>
<g filter="url(#filter1_d_185_579)">
<path d="M918.972 152.098C954.519 152.098 983.336 123.193 983.336 87.5372C983.336 51.8814 954.519 22.9766 918.972 22.9766C883.424 22.9766 854.607 51.8814 854.607 87.5372C854.607 123.193 883.424 152.098 918.972 152.098Z" fill="white"/>
</g>
<g filter="url(#filter2_d_185_579)">
<path d="M710.992 245.432C746.54 245.432 775.356 216.527 775.356 180.871C775.356 145.215 746.54 116.311 710.992 116.311C675.445 116.311 646.628 145.215 646.628 180.871C646.628 216.527 675.445 245.432 710.992 245.432Z" fill="white"/>
</g>
<g filter="url(#filter3_d_185_579)">
<path d="M503.013 152.098C538.56 152.098 567.377 123.193 567.377 87.5372C567.377 51.8814 538.56 22.9766 503.013 22.9766C467.465 22.9766 438.648 51.8814 438.648 87.5372C438.648 123.193 467.465 152.098 503.013 152.098Z" fill="white"/>
</g>
<g filter="url(#filter4_d_185_579)">
<path d="M295.034 245.432C330.581 245.432 359.398 216.527 359.398 180.871C359.398 145.215 330.581 116.311 295.034 116.311C259.487 116.311 230.67 145.215 230.67 180.871C230.67 216.527 259.487 245.432 295.034 245.432Z" fill="white"/>
</g>
<g filter="url(#filter5_d_185_579)">
<path d="M87.0536 152.098C122.601 152.098 151.418 123.193 151.418 87.5372C151.418 51.8814 122.601 22.9766 87.0536 22.9766C51.5063 22.9766 22.6895 51.8814 22.6895 87.5372C22.6895 123.193 51.5063 152.098 87.0536 152.098Z" fill="white"/>
</g>
<path d="M71.885 65.4075C76.6705 65.4075 80.4988 67.109 83.317 70.5652C86.1351 74.0213 87.5707 78.6473 87.5707 84.443C87.5707 90.2388 86.1351 94.8647 83.317 98.3209C80.4988 101.777 76.6705 103.532 71.885 103.532C67.0464 103.532 63.218 101.777 60.3999 98.3209C57.5286 94.8647 56.093 90.2388 56.093 84.443C56.093 78.6473 57.5286 74.0213 60.3999 70.5652C63.218 67.109 67.0464 65.4075 71.885 65.4075ZM71.885 72.5857C67.3654 72.5857 64.76 76.9458 64.76 84.443C64.76 91.9403 67.3654 96.3003 71.885 96.3003C76.3514 96.3003 78.9569 91.9403 78.9569 84.443C78.9569 76.999 76.2983 72.5857 71.885 72.5857ZM100.978 65.9392H107.837V103H99.33L99.3832 78.3814H91.5669V72.7984C94.2787 72.7984 96.5651 72.1603 98.3197 70.831C100.074 69.5549 100.978 67.9066 100.978 65.9392Z" fill="#FF50C9"/>
<path d="M279.686 164.407C284.471 164.407 288.3 166.109 291.118 169.565C293.936 173.021 295.371 177.647 295.371 183.443C295.371 189.239 293.936 193.865 291.118 197.321C288.3 200.777 284.471 202.532 279.686 202.532C274.847 202.532 271.019 200.777 268.201 197.321C265.329 193.865 263.894 189.239 263.894 183.443C263.894 177.647 265.329 173.021 268.201 169.565C271.019 166.109 274.847 164.407 279.686 164.407ZM279.686 171.586C275.166 171.586 272.561 175.946 272.561 183.443C272.561 190.94 275.166 195.3 279.686 195.3C284.152 195.3 286.758 190.94 286.758 183.443C286.758 175.999 284.099 171.586 279.686 171.586ZM308.939 194.928H326.911V202H299.261V201.309C299.261 197.534 300.378 194.184 301.654 192.216C302.239 191.206 303.143 190.249 304.259 189.239C305.376 188.228 306.227 187.537 306.918 187.059C307.556 186.633 308.46 186.048 309.683 185.357C315.053 182.22 318.031 179.455 318.031 176.105C318.031 173.394 316.117 171.533 313.352 171.533C310.427 171.533 308.194 173.5 308.141 176.956H299.953C300.112 173.128 301.441 170.097 303.94 167.81C306.439 165.524 309.683 164.407 313.565 164.407C317.287 164.407 320.371 165.471 322.816 167.545C325.209 169.672 326.432 172.383 326.432 175.68C326.432 178.923 325.262 181.688 322.976 183.922C320.69 186.155 319.094 187.271 316.117 189.026C312.926 190.781 310.959 192.057 310.162 192.854C309.47 193.546 309.045 194.237 308.939 194.928Z" fill="#FF5CB8"/>
<path d="M485.822 65.4075C490.608 65.4075 494.436 67.109 497.254 70.5652C500.072 74.0213 501.508 78.6473 501.508 84.443C501.508 90.2388 500.072 94.8647 497.254 98.3209C494.436 101.777 490.608 103.532 485.822 103.532C480.984 103.532 477.155 101.777 474.337 98.3209C471.466 94.8647 470.03 90.2388 470.03 84.443C470.03 78.6473 471.466 74.0213 474.337 70.5652C477.155 67.109 480.984 65.4075 485.822 65.4075ZM485.822 72.5857C481.303 72.5857 478.697 76.9458 478.697 84.443C478.697 91.9403 481.303 96.3003 485.822 96.3003C490.289 96.3003 492.894 91.9403 492.894 84.443C492.894 76.999 490.236 72.5857 485.822 72.5857ZM526.135 83.7518C530.761 85.0811 533.738 88.5904 533.738 92.8442C533.738 95.875 532.409 98.374 529.751 100.448C527.092 102.521 523.742 103.532 519.701 103.532C515.447 103.532 511.938 102.362 509.226 100.076C506.514 97.7892 505.079 94.7052 505.026 90.8236H513.533C513.693 94.3862 516.085 96.4599 519.435 96.4599C522.679 96.4599 525.071 94.4393 525.071 91.8339C525.071 88.9095 522.306 86.9953 518.212 86.9953H516.351V81.3059H518.212C521.881 81.3059 524.433 79.2853 524.433 76.4672C524.433 73.915 522.36 72.2135 519.542 72.2135C516.404 72.2135 514.171 74.2872 514.012 77.956H506.249C506.408 74.1277 507.684 71.0969 510.183 68.8105C512.629 66.5241 515.819 65.4075 519.754 65.4075C523.37 65.4075 526.401 66.3646 528.847 68.2256C531.239 70.1398 532.462 72.4793 532.462 75.2975C532.462 79.1258 529.963 82.4225 526.135 83.7518Z" fill="#FF7299"/>
<path d="M901.926 65.4075C906.712 65.4075 910.54 67.109 913.358 70.5652C916.176 74.0213 917.612 78.6473 917.612 84.443C917.612 90.2388 916.176 94.8647 913.358 98.3209C910.54 101.777 906.712 103.532 901.926 103.532C897.087 103.532 893.259 101.777 890.441 98.3209C887.57 94.8647 886.134 90.2388 886.134 84.443C886.134 78.6473 887.57 74.0213 890.441 70.5652C893.259 67.109 897.087 65.4075 901.926 65.4075ZM901.926 72.5857C897.406 72.5857 894.801 76.9458 894.801 84.443C894.801 91.9403 897.406 96.3003 901.926 96.3003C906.393 96.3003 908.998 91.9403 908.998 84.443C908.998 76.999 906.339 72.5857 901.926 72.5857ZM938.038 78.0624C941.601 78.0624 944.419 79.2322 946.492 81.5186C948.566 83.805 949.576 86.8358 949.576 90.5046C949.576 94.2798 948.247 97.3638 945.535 99.8097C942.824 102.309 939.367 103.532 935.167 103.532C931.392 103.532 928.148 102.415 925.543 100.182C922.884 98.0018 921.448 95.1306 921.183 91.6212H929.69C930.169 94.333 932.455 96.1408 935.167 96.1408C938.41 96.1408 940.909 93.6417 940.909 89.9729C940.909 86.4104 938.517 83.9113 935.167 83.9113C932.774 83.9113 931.073 85.0811 930.062 87.3675H922.087L925.171 65.9392H931.817H947.715V72.9579H930.966L929.903 81.359C931.87 79.179 934.582 78.0624 938.038 78.0624Z" fill="#FF9469"/>
<path d="M694.05 162.407C698.836 162.407 702.664 164.109 705.482 167.565C708.3 171.021 709.736 175.647 709.736 181.443C709.736 187.239 708.3 191.865 705.482 195.321C702.664 198.777 698.836 200.532 694.05 200.532C689.211 200.532 685.383 198.777 682.565 195.321C679.694 191.865 678.258 187.239 678.258 181.443C678.258 175.647 679.694 171.021 682.565 167.565C685.383 164.109 689.211 162.407 694.05 162.407ZM694.05 169.586C689.53 169.586 686.925 173.946 686.925 181.443C686.925 188.94 689.53 193.3 694.05 193.3C698.517 193.3 701.122 188.94 701.122 181.443C701.122 173.999 698.463 169.586 694.05 169.586ZM738.989 185.325H744.944V192.343H738.989V200H730.481V192.343H713.626V186.122L728.78 162.939H738.989V185.325ZM730.481 185.325L730.534 172.138L721.708 185.325H730.481Z" fill="#FF8086"/>
<path d="M1110.72 162.407C1115.5 162.407 1119.33 164.109 1122.15 167.565C1124.97 171.021 1126.4 175.647 1126.4 181.443C1126.4 187.239 1124.97 191.865 1122.15 195.321C1119.33 198.777 1115.5 200.532 1110.72 200.532C1105.88 200.532 1102.05 198.777 1099.23 195.321C1096.36 191.865 1094.93 187.239 1094.93 181.443C1094.93 175.647 1096.36 171.021 1099.23 167.565C1102.05 164.109 1105.88 162.407 1110.72 162.407ZM1110.72 169.586C1106.2 169.586 1103.59 173.946 1103.59 181.443C1103.59 188.94 1106.2 193.3 1110.72 193.3C1115.18 193.3 1117.79 188.94 1117.79 181.443C1117.79 173.999 1115.13 169.586 1110.72 169.586ZM1147.42 175.116C1150.71 175.116 1153.48 176.232 1155.76 178.465C1158 180.752 1159.11 183.57 1159.11 186.973C1159.11 190.961 1157.73 194.204 1155.02 196.703C1152.31 199.256 1148.8 200.532 1144.54 200.532C1140.34 200.532 1136.83 199.256 1134.12 196.757C1131.36 194.257 1129.97 191.12 1129.97 187.239C1129.97 184.527 1130.77 181.922 1132.42 179.476L1143.59 162.939H1153.64L1144.44 175.488C1145.34 175.222 1146.3 175.116 1147.42 175.116ZM1140.34 191.546C1141.46 192.662 1142.84 193.247 1144.54 193.247C1146.25 193.247 1147.68 192.662 1148.8 191.546C1149.91 190.429 1150.45 188.993 1150.45 187.239C1150.45 185.484 1149.91 184.048 1148.8 182.879C1147.68 181.762 1146.25 181.177 1144.54 181.177C1142.84 181.177 1141.46 181.762 1140.34 182.879C1139.23 184.048 1138.64 185.484 1138.64 187.239C1138.64 188.993 1139.23 190.429 1140.34 191.546Z" fill="#FFA156"/>
<path d="M24.4347 220V205.455H30.0028C31.054 205.455 31.9276 205.62 32.6236 205.952C33.3243 206.278 33.8475 206.726 34.1932 207.294C34.5436 207.862 34.7188 208.506 34.7188 209.226C34.7188 209.818 34.6051 210.324 34.3778 210.746C34.1506 211.162 33.8452 211.501 33.4616 211.761C33.0781 212.022 32.6496 212.209 32.1761 212.322V212.464C32.6922 212.493 33.187 212.652 33.6605 212.94C34.1387 213.224 34.5294 213.627 34.8324 214.148C35.1354 214.669 35.2869 215.298 35.2869 216.037C35.2869 216.79 35.1046 217.467 34.7401 218.068C34.3755 218.665 33.8262 219.136 33.0923 219.482C32.3584 219.827 31.4351 220 30.3224 220H24.4347ZM27.0696 217.798H29.9034C30.8598 217.798 31.5488 217.616 31.9702 217.251C32.3963 216.882 32.6094 216.409 32.6094 215.831C32.6094 215.4 32.5028 215.012 32.2898 214.666C32.0767 214.316 31.7737 214.041 31.3807 213.842C30.9877 213.639 30.5189 213.537 29.9744 213.537H27.0696V217.798ZM27.0696 211.641H29.6761C30.1307 211.641 30.5402 211.558 30.9048 211.392C31.2694 211.222 31.5559 210.982 31.7642 210.675C31.9773 210.362 32.0838 209.993 32.0838 209.567C32.0838 209.003 31.8849 208.539 31.4872 208.175C31.0942 207.81 30.5095 207.628 29.733 207.628H27.0696V211.641ZM37.4656 220V209.091H39.9585V210.909H40.0721C40.271 210.279 40.6119 209.794 41.0948 209.453C41.5825 209.107 42.1388 208.935 42.7638 208.935C42.9059 208.935 43.0645 208.942 43.2397 208.956C43.4196 208.965 43.5688 208.982 43.6871 209.006V211.371C43.5782 211.333 43.4054 211.3 43.1687 211.271C42.9367 211.238 42.7118 211.222 42.494 211.222C42.0252 211.222 41.6038 211.323 41.2298 211.527C40.8604 211.726 40.5692 212.003 40.3562 212.358C40.1431 212.713 40.0366 213.123 40.0366 213.587V220H37.4656ZM48.3391 220.22C47.6478 220.22 47.0252 220.097 46.4712 219.851C45.922 219.6 45.4864 219.231 45.1644 218.743C44.8472 218.255 44.6886 217.654 44.6886 216.939C44.6886 216.323 44.8022 215.814 45.0295 215.412C45.2567 215.009 45.5669 214.688 45.9599 214.446C46.3529 214.205 46.7956 214.022 47.288 213.899C47.7852 213.771 48.2989 213.679 48.8292 213.622C49.4684 213.556 49.9869 213.497 50.3846 213.445C50.7823 213.388 51.0711 213.303 51.2511 213.189C51.4357 213.071 51.5281 212.888 51.5281 212.642V212.599C51.5281 212.064 51.3694 211.65 51.0522 211.357C50.735 211.063 50.2781 210.916 49.6815 210.916C49.0517 210.916 48.5522 211.054 48.1829 211.328C47.8183 211.603 47.5721 211.927 47.4442 212.301L45.0437 211.96C45.2331 211.297 45.5456 210.743 45.9812 210.298C46.4168 209.848 46.9495 209.512 47.5792 209.29C48.2089 209.062 48.9049 208.949 49.6673 208.949C50.1928 208.949 50.716 209.01 51.2369 209.134C51.7577 209.257 52.2335 209.46 52.6644 209.744C53.0953 210.024 53.4409 210.405 53.7013 210.888C53.9665 211.371 54.0991 211.974 54.0991 212.699V220H51.6275V218.501H51.5423C51.386 218.804 51.1658 219.089 50.8817 219.354C50.6024 219.614 50.2496 219.825 49.8235 219.986C49.4021 220.142 48.9073 220.22 48.3391 220.22ZM49.0067 218.331C49.5228 218.331 49.9703 218.229 50.3491 218.026C50.7279 217.817 51.0191 217.543 51.2227 217.202C51.431 216.861 51.5352 216.489 51.5352 216.087V214.801C51.4547 214.867 51.3174 214.929 51.1232 214.986C50.9338 215.043 50.7208 215.092 50.484 215.135C50.2473 215.178 50.0129 215.215 49.7809 215.249C49.5489 215.282 49.3477 215.31 49.1772 215.334C48.7937 215.386 48.4504 215.471 48.1474 215.589C47.8443 215.708 47.6052 215.874 47.43 216.087C47.2549 216.295 47.1673 216.565 47.1673 216.896C47.1673 217.37 47.3401 217.727 47.6857 217.969C48.0314 218.21 48.4717 218.331 49.0067 218.331ZM59.2553 213.608V220H56.6843V209.091H59.1417V210.945H59.2695C59.5205 210.334 59.9206 209.848 60.4698 209.489C61.0238 209.129 61.708 208.949 62.5224 208.949C63.2752 208.949 63.931 209.11 64.4897 209.432C65.0531 209.754 65.4888 210.22 65.7965 210.831C66.109 211.442 66.2629 212.183 66.2582 213.054V220H63.6871V213.452C63.6871 212.723 63.4978 212.152 63.119 211.74C62.7449 211.328 62.2264 211.122 61.5636 211.122C61.1138 211.122 60.7137 211.222 60.3633 211.42C60.0176 211.615 59.7454 211.896 59.5465 212.266C59.3524 212.635 59.2553 213.082 59.2553 213.608ZM72.9201 220.192C72.0631 220.192 71.296 219.972 70.619 219.531C69.9419 219.091 69.4068 218.452 69.0138 217.614C68.6209 216.776 68.4244 215.758 68.4244 214.56C68.4244 213.348 68.6232 212.325 69.021 211.491C69.4234 210.653 69.9656 210.021 70.6474 209.595C71.3292 209.164 72.0891 208.949 72.9272 208.949C73.5664 208.949 74.092 209.058 74.5039 209.276C74.9158 209.489 75.2425 209.747 75.484 210.05C75.7255 210.348 75.9125 210.63 76.0451 210.895H76.1516V205.455H78.7298V220H76.2013V218.281H76.0451C75.9125 218.546 75.7208 218.828 75.4698 219.126C75.2189 219.42 74.8874 219.671 74.4755 219.879C74.0636 220.088 73.5451 220.192 72.9201 220.192ZM73.6374 218.082C74.1819 218.082 74.646 217.936 75.0295 217.642C75.413 217.344 75.7042 216.929 75.9031 216.399C76.1019 215.869 76.2013 215.251 76.2013 214.545C76.2013 213.84 76.1019 213.227 75.9031 212.706C75.7089 212.185 75.4201 211.78 75.0366 211.491C74.6578 211.203 74.1914 211.058 73.6374 211.058C73.0645 211.058 72.5863 211.207 72.2028 211.506C71.8192 211.804 71.5304 212.216 71.3363 212.741C71.1422 213.267 71.0451 213.868 71.0451 214.545C71.0451 215.227 71.1422 215.836 71.3363 216.371C71.5352 216.901 71.8263 217.32 72.2099 217.628C72.5981 217.931 73.074 218.082 73.6374 218.082ZM90.777 220.213C89.7827 220.213 88.928 220.033 88.2131 219.673C87.4981 219.313 86.9465 218.828 86.5582 218.217C86.1747 217.602 85.983 216.908 85.983 216.136C85.983 215.554 86.1013 215.038 86.3381 214.588C86.5795 214.138 86.911 213.722 87.3324 213.338C87.7585 212.955 88.2509 212.573 88.8097 212.195L91.3878 210.44C91.7666 210.194 92.053 209.934 92.2472 209.659C92.446 209.384 92.5455 209.062 92.5455 208.693C92.5455 208.381 92.4129 208.085 92.1477 207.805C91.8873 207.526 91.5275 207.386 91.0682 207.386C90.7604 207.386 90.4882 207.46 90.2514 207.607C90.0194 207.749 89.8371 207.936 89.7045 208.168C89.5767 208.4 89.5128 208.646 89.5128 208.906C89.5128 209.223 89.6004 209.545 89.7756 209.872C89.9555 210.199 90.1875 210.537 90.4716 210.888C90.7604 211.238 91.0682 211.61 91.3949 212.003L98.2202 220H95.4361L89.7685 213.509C89.3471 213.016 88.9399 212.531 88.5469 212.053C88.1586 211.574 87.839 211.077 87.5881 210.561C87.3419 210.04 87.2188 209.477 87.2188 208.871C87.2188 208.184 87.3774 207.571 87.6946 207.031C88.0118 206.487 88.4545 206.058 89.0227 205.746C89.5956 205.433 90.2656 205.277 91.0327 205.277C91.7997 205.277 92.4579 205.429 93.0071 205.732C93.5563 206.035 93.9801 206.437 94.2784 206.939C94.5767 207.441 94.7259 207.988 94.7259 208.58C94.7259 209.266 94.5554 209.882 94.2145 210.426C93.8736 210.966 93.4001 211.456 92.794 211.896L89.8537 214.048C89.3707 214.399 89.0251 214.754 88.8168 215.114C88.6084 215.469 88.5043 215.772 88.5043 216.023C88.5043 216.406 88.6013 216.754 88.7955 217.067C88.9896 217.379 89.2618 217.63 89.6122 217.82C89.9673 218.004 90.3816 218.097 90.8551 218.097C91.3759 218.097 91.8897 217.981 92.3963 217.749C92.9029 217.512 93.3646 217.176 93.7812 216.74C94.1979 216.304 94.5294 215.784 94.7756 215.178C95.0218 214.567 95.1449 213.89 95.1449 213.146H97.3537C97.3537 214.065 97.2519 214.865 97.0483 215.547C96.8447 216.224 96.5819 216.797 96.2599 217.266C95.938 217.73 95.5971 218.101 95.2372 218.381C95.1236 218.461 95.0147 218.542 94.9105 218.622C94.8063 218.703 94.6974 218.783 94.5838 218.864C94.0724 219.328 93.4735 219.669 92.7869 219.886C92.1051 220.104 91.4351 220.213 90.777 220.213ZM104.127 207.663V205.455H115.733V207.663H111.237V220H108.623V207.663H104.127ZM119.511 220.22C118.82 220.22 118.197 220.097 117.643 219.851C117.094 219.6 116.658 219.231 116.336 218.743C116.019 218.255 115.86 217.654 115.86 216.939C115.86 216.323 115.974 215.814 116.201 215.412C116.429 215.009 116.739 214.688 117.132 214.446C117.525 214.205 117.967 214.022 118.46 213.899C118.957 213.771 119.471 213.679 120.001 213.622C120.64 213.556 121.159 213.497 121.556 213.445C121.954 213.388 122.243 213.303 122.423 213.189C122.608 213.071 122.7 212.888 122.7 212.642V212.599C122.7 212.064 122.541 211.65 122.224 211.357C121.907 211.063 121.45 210.916 120.853 210.916C120.224 210.916 119.724 211.054 119.355 211.328C118.99 211.603 118.744 211.927 118.616 212.301L116.216 211.96C116.405 211.297 116.717 210.743 117.153 210.298C117.589 209.848 118.121 209.512 118.751 209.29C119.381 209.062 120.077 208.949 120.839 208.949C121.365 208.949 121.888 209.01 122.409 209.134C122.93 209.257 123.405 209.46 123.836 209.744C124.267 210.024 124.613 210.405 124.873 210.888C125.138 211.371 125.271 211.974 125.271 212.699V220H122.799V218.501H122.714C122.558 218.804 122.338 219.089 122.054 219.354C121.774 219.614 121.422 219.825 120.995 219.986C120.574 220.142 120.079 220.22 119.511 220.22ZM120.179 218.331C120.695 218.331 121.142 218.229 121.521 218.026C121.9 217.817 122.191 217.543 122.395 217.202C122.603 216.861 122.707 216.489 122.707 216.087V214.801C122.627 214.867 122.489 214.929 122.295 214.986C122.106 215.043 121.893 215.092 121.656 215.135C121.419 215.178 121.185 215.215 120.953 215.249C120.721 215.282 120.52 215.31 120.349 215.334C119.966 215.386 119.622 215.471 119.319 215.589C119.016 215.708 118.777 215.874 118.602 216.087C118.427 216.295 118.339 216.565 118.339 216.896C118.339 217.37 118.512 217.727 118.858 217.969C119.203 218.21 119.644 218.331 120.179 218.331ZM127.856 220V209.091H130.349V210.909H130.463C130.662 210.279 131.002 209.794 131.485 209.453C131.973 209.107 132.529 208.935 133.154 208.935C133.297 208.935 133.455 208.942 133.63 208.956C133.81 208.965 133.959 208.982 134.078 209.006V211.371C133.969 211.333 133.796 211.3 133.559 211.271C133.327 211.238 133.102 211.222 132.885 211.222C132.416 211.222 131.994 211.323 131.62 211.527C131.251 211.726 130.96 212.003 130.747 212.358C130.534 212.713 130.427 213.123 130.427 213.587V220H127.856ZM140.081 224.318C139.158 224.318 138.365 224.193 137.702 223.942C137.039 223.696 136.506 223.364 136.104 222.947C135.701 222.531 135.422 222.069 135.266 221.562L137.581 221.001C137.685 221.214 137.837 221.425 138.036 221.634C138.234 221.847 138.502 222.022 138.838 222.159C139.179 222.301 139.607 222.372 140.124 222.372C140.853 222.372 141.456 222.195 141.935 221.839C142.413 221.489 142.652 220.911 142.652 220.107V218.04H142.524C142.392 218.305 142.197 218.577 141.942 218.857C141.691 219.136 141.357 219.37 140.94 219.56C140.528 219.749 140.01 219.844 139.385 219.844C138.547 219.844 137.787 219.647 137.105 219.254C136.428 218.857 135.888 218.265 135.486 217.479C135.088 216.688 134.889 215.698 134.889 214.51C134.889 213.312 135.088 212.301 135.486 211.477C135.888 210.649 136.43 210.021 137.112 209.595C137.794 209.164 138.554 208.949 139.392 208.949C140.031 208.949 140.557 209.058 140.969 209.276C141.385 209.489 141.717 209.747 141.963 210.05C142.209 210.348 142.396 210.63 142.524 210.895H142.666V209.091H145.202V220.178C145.202 221.11 144.979 221.882 144.534 222.493C144.089 223.104 143.481 223.561 142.709 223.864C141.937 224.167 141.061 224.318 140.081 224.318ZM140.102 217.827C140.647 217.827 141.111 217.694 141.494 217.429C141.878 217.164 142.169 216.783 142.368 216.286C142.567 215.788 142.666 215.192 142.666 214.496C142.666 213.809 142.567 213.208 142.368 212.692C142.174 212.176 141.885 211.776 141.501 211.491C141.123 211.203 140.656 211.058 140.102 211.058C139.529 211.058 139.051 211.207 138.668 211.506C138.284 211.804 137.995 212.214 137.801 212.734C137.607 213.25 137.51 213.838 137.51 214.496C137.51 215.163 137.607 215.748 137.801 216.25C138 216.747 138.291 217.135 138.675 217.415C139.063 217.689 139.539 217.827 140.102 217.827ZM152.666 220.213C151.572 220.213 150.628 219.986 149.832 219.531C149.042 219.072 148.433 218.423 148.007 217.585C147.581 216.742 147.368 215.75 147.368 214.609C147.368 213.487 147.581 212.502 148.007 211.655C148.438 210.803 149.039 210.14 149.811 209.666C150.583 209.188 151.49 208.949 152.531 208.949C153.204 208.949 153.838 209.058 154.435 209.276C155.036 209.489 155.566 209.82 156.026 210.27C156.49 210.72 156.854 211.293 157.119 211.989C157.384 212.68 157.517 213.504 157.517 214.46V215.249H148.575V213.516H155.053C155.048 213.023 154.941 212.585 154.733 212.202C154.525 211.813 154.233 211.508 153.859 211.286C153.49 211.063 153.059 210.952 152.567 210.952C152.041 210.952 151.58 211.08 151.182 211.335C150.784 211.586 150.474 211.918 150.251 212.33C150.034 212.737 149.922 213.184 149.918 213.672V215.185C149.918 215.819 150.034 216.364 150.266 216.818C150.498 217.268 150.822 217.614 151.239 217.855C151.655 218.092 152.143 218.21 152.702 218.21C153.076 218.21 153.414 218.158 153.717 218.054C154.02 217.945 154.283 217.786 154.506 217.578C154.728 217.37 154.896 217.112 155.01 216.804L157.411 217.074C157.259 217.708 156.97 218.262 156.544 218.736C156.123 219.205 155.583 219.569 154.925 219.83C154.267 220.085 153.514 220.213 152.666 220.213ZM165.14 209.091V211.08H158.868V209.091H165.14ZM160.417 206.477H162.988V216.719C162.988 217.064 163.04 217.33 163.144 217.514C163.253 217.694 163.395 217.817 163.57 217.884C163.745 217.95 163.939 217.983 164.152 217.983C164.313 217.983 164.46 217.971 164.593 217.947C164.73 217.924 164.834 217.902 164.905 217.884L165.338 219.893C165.201 219.941 165.005 219.993 164.749 220.05C164.498 220.107 164.19 220.14 163.826 220.149C163.182 220.168 162.602 220.071 162.086 219.858C161.569 219.64 161.16 219.304 160.857 218.849C160.559 218.395 160.412 217.827 160.417 217.145V206.477ZM27.0696 229.455V244H24.4347V229.455H27.0696ZM32.3803 237.608V244H29.8093V233.091H32.2667V234.945H32.3945C32.6455 234.334 33.0456 233.848 33.5948 233.489C34.1488 233.129 34.833 232.949 35.6474 232.949C36.4002 232.949 37.056 233.11 37.6147 233.432C38.1781 233.754 38.6138 234.22 38.9215 234.831C39.234 235.442 39.3879 236.183 39.3832 237.054V244H36.8121V237.452C36.8121 236.723 36.6228 236.152 36.244 235.74C35.8699 235.328 35.3514 235.122 34.6886 235.122C34.2388 235.122 33.8387 235.222 33.4883 235.42C33.1426 235.615 32.8704 235.896 32.6715 236.266C32.4774 236.635 32.3803 237.082 32.3803 237.608ZM50.619 235.974L48.2752 236.23C48.2089 235.993 48.0929 235.771 47.9272 235.562C47.7662 235.354 47.5484 235.186 47.2738 235.058C46.9992 234.93 46.663 234.866 46.2653 234.866C45.7302 234.866 45.2804 234.982 44.9158 235.214C44.556 235.446 44.3784 235.747 44.3832 236.116C44.3784 236.434 44.4944 236.692 44.7312 236.891C44.9727 237.089 45.3704 237.253 45.9244 237.381L47.7852 237.778C48.8174 238.001 49.5844 238.354 50.0863 238.837C50.5929 239.32 50.8486 239.952 50.8533 240.733C50.8486 241.42 50.6474 242.026 50.2496 242.551C49.8567 243.072 49.3098 243.479 48.609 243.773C47.9083 244.066 47.1033 244.213 46.1942 244.213C44.859 244.213 43.7842 243.934 42.9698 243.375C42.1554 242.812 41.6701 242.028 41.5138 241.024L44.021 240.783C44.1346 241.275 44.3761 241.647 44.7454 241.898C45.1147 242.149 45.5953 242.274 46.1871 242.274C46.7979 242.274 47.288 242.149 47.6573 241.898C48.0314 241.647 48.2184 241.337 48.2184 240.967C48.2184 240.655 48.0977 240.397 47.8562 240.193C47.6194 239.99 47.2501 239.833 46.7482 239.724L44.8874 239.334C43.841 239.116 43.0669 238.749 42.565 238.233C42.0631 237.712 41.8145 237.054 41.8192 236.259C41.8145 235.586 41.9968 235.004 42.3661 234.511C42.7402 234.014 43.2586 233.631 43.9215 233.361C44.5891 233.086 45.3585 232.949 46.2298 232.949C47.5082 232.949 48.5143 233.221 49.2482 233.766C49.9869 234.31 50.4438 235.046 50.619 235.974ZM52.9734 244V233.091H55.5444V244H52.9734ZM54.266 231.543C53.8588 231.543 53.5084 231.408 53.2148 231.138C52.9213 230.863 52.7745 230.534 52.7745 230.151C52.7745 229.762 52.9213 229.433 53.2148 229.163C53.5084 228.889 53.8588 228.751 54.266 228.751C54.6779 228.751 55.0283 228.889 55.3171 229.163C55.6107 229.433 55.7575 229.762 55.7575 230.151C55.7575 230.534 55.6107 230.863 55.3171 231.138C55.0283 231.408 54.6779 231.543 54.266 231.543ZM62.9325 248.318C62.0092 248.318 61.2161 248.193 60.5533 247.942C59.8904 247.696 59.3577 247.364 58.9553 246.947C58.5528 246.531 58.2734 246.069 58.1172 245.562L60.4325 245.001C60.5367 245.214 60.6882 245.425 60.8871 245.634C61.0859 245.847 61.3535 246.022 61.6896 246.159C62.0305 246.301 62.459 246.372 62.9751 246.372C63.7043 246.372 64.308 246.195 64.7862 245.839C65.2644 245.489 65.5036 244.911 65.5036 244.107V242.04H65.3757C65.2431 242.305 65.049 242.577 64.7933 242.857C64.5424 243.136 64.2086 243.37 63.7919 243.56C63.38 243.749 62.8615 243.844 62.2365 243.844C61.3984 243.844 60.6385 243.647 59.9567 243.254C59.2796 242.857 58.7398 242.265 58.3374 241.479C57.9396 240.688 57.7408 239.698 57.7408 238.51C57.7408 237.312 57.9396 236.301 58.3374 235.477C58.7398 234.649 59.282 234.021 59.9638 233.595C60.6456 233.164 61.4055 232.949 62.2436 232.949C62.8828 232.949 63.4084 233.058 63.8203 233.276C64.237 233.489 64.5684 233.747 64.8146 234.05C65.0608 234.348 65.2479 234.63 65.3757 234.895H65.5178V233.091H68.0533V244.178C68.0533 245.11 67.8307 245.882 67.3857 246.493C66.9406 247.104 66.3321 247.561 65.5604 247.864C64.7886 248.167 63.9126 248.318 62.9325 248.318ZM62.9538 241.827C63.4983 241.827 63.9624 241.694 64.3459 241.429C64.7294 241.164 65.0206 240.783 65.2195 240.286C65.4183 239.788 65.5178 239.192 65.5178 238.496C65.5178 237.809 65.4183 237.208 65.2195 236.692C65.0253 236.176 64.7365 235.776 64.353 235.491C63.9742 235.203 63.5078 235.058 62.9538 235.058C62.3809 235.058 61.9027 235.207 61.5192 235.506C61.1357 235.804 60.8468 236.214 60.6527 236.734C60.4586 237.25 60.3615 237.838 60.3615 238.496C60.3615 239.163 60.4586 239.748 60.6527 240.25C60.8516 240.747 61.1428 241.135 61.5263 241.415C61.9145 241.689 62.3904 241.827 62.9538 241.827ZM73.2592 237.608V244H70.6882V229.455H73.2024V234.945H73.3303C73.5859 234.329 73.9813 233.844 74.5163 233.489C75.0561 233.129 75.7427 232.949 76.576 232.949C77.3336 232.949 77.9941 233.107 78.5575 233.425C79.121 233.742 79.5566 234.206 79.8643 234.817C80.1768 235.428 80.3331 236.173 80.3331 237.054V244H77.7621V237.452C77.7621 236.718 77.5727 236.147 77.1939 235.74C76.8198 235.328 76.2943 235.122 75.6172 235.122C75.1626 235.122 74.7554 235.222 74.3956 235.42C74.0405 235.615 73.7611 235.896 73.5575 236.266C73.3587 236.635 73.2592 237.082 73.2592 237.608ZM88.4013 233.091V235.08H82.13V233.091H88.4013ZM83.6783 230.477H86.2493V240.719C86.2493 241.064 86.3014 241.33 86.4055 241.514C86.5144 241.694 86.6565 241.817 86.8317 241.884C87.0069 241.95 87.201 241.983 87.4141 241.983C87.575 241.983 87.7218 241.971 87.8544 241.947C87.9917 241.924 88.0959 241.902 88.1669 241.884L88.6001 243.893C88.4628 243.941 88.2663 243.993 88.0107 244.05C87.7597 244.107 87.4519 244.14 87.0874 244.149C86.4434 244.168 85.8634 244.071 85.3473 243.858C84.8312 243.64 84.4216 243.304 84.1186 242.849C83.8203 242.395 83.6735 241.827 83.6783 241.145V230.477ZM99.0174 235.974L96.6737 236.23C96.6074 235.993 96.4914 235.771 96.3256 235.562C96.1647 235.354 95.9469 235.186 95.6722 235.058C95.3976 234.93 95.0614 234.866 94.6637 234.866C94.1287 234.866 93.6789 234.982 93.3143 235.214C92.9544 235.446 92.7769 235.747 92.7816 236.116C92.7769 236.434 92.8929 236.692 93.1296 236.891C93.3711 237.089 93.7688 237.253 94.3228 237.381L96.1836 237.778C97.2158 238.001 97.9828 238.354 98.4847 238.837C98.9914 239.32 99.247 239.952 99.2518 240.733C99.247 241.42 99.0458 242.026 98.6481 242.551C98.2551 243.072 97.7082 243.479 97.0075 243.773C96.3067 244.066 95.5018 244.213 94.5927 244.213C93.2575 244.213 92.1826 243.934 91.3683 243.375C90.5539 242.812 90.0685 242.028 89.9123 241.024L92.4194 240.783C92.533 241.275 92.7745 241.647 93.1438 241.898C93.5131 242.149 93.9937 242.274 94.5856 242.274C95.1964 242.274 95.6864 242.149 96.0558 241.898C96.4298 241.647 96.6168 241.337 96.6168 240.967C96.6168 240.655 96.4961 240.397 96.2546 240.193C96.0179 239.99 95.6486 239.833 95.1467 239.724L93.2859 239.334C92.2395 239.116 91.4653 238.749 90.9634 238.233C90.4615 237.712 90.2129 237.054 90.2177 236.259C90.2129 235.586 90.3952 235.004 90.7646 234.511C91.1386 234.014 91.6571 233.631 92.32 233.361C92.9876 233.086 93.757 232.949 94.6282 232.949C95.9066 232.949 96.9128 233.221 97.6467 233.766C98.3853 234.31 98.8422 235.046 99.0174 235.974Z" fill="#717171"/>
<path d="M261.64 28.4531C261.574 27.8329 261.295 27.3499 260.802 27.0043C260.315 26.6586 259.68 26.4858 258.899 26.4858C258.35 26.4858 257.878 26.5687 257.485 26.7344C257.092 26.9001 256.792 27.125 256.583 27.4091C256.375 27.6932 256.269 28.0175 256.264 28.3821C256.264 28.6851 256.333 28.9479 256.47 29.1705C256.612 29.393 256.804 29.5824 257.045 29.7386C257.287 29.8902 257.554 30.018 257.848 30.1222C258.141 30.2263 258.437 30.3139 258.735 30.3849L260.099 30.7259C260.648 30.8537 261.176 31.0265 261.683 31.2443C262.194 31.4621 262.651 31.7367 263.054 32.0682C263.461 32.3996 263.783 32.7997 264.02 33.2685C264.256 33.7372 264.375 34.2865 264.375 34.9162C264.375 35.7685 264.157 36.5189 263.721 37.1676C263.286 37.8116 262.656 38.3158 261.832 38.6804C261.013 39.0402 260.021 39.2202 258.856 39.2202C257.725 39.2202 256.742 39.045 255.909 38.6946C255.08 38.3442 254.431 37.8329 253.963 37.1605C253.499 36.4882 253.248 35.669 253.21 34.7031H255.802C255.84 35.2098 255.996 35.6312 256.271 35.9673C256.546 36.3035 256.903 36.5545 257.343 36.7202C257.788 36.8859 258.286 36.9688 258.835 36.9688C259.408 36.9688 259.91 36.8835 260.341 36.7131C260.776 36.5379 261.117 36.2964 261.363 35.9886C261.609 35.6761 261.735 35.3116 261.74 34.8949C261.735 34.5161 261.624 34.2036 261.406 33.9574C261.188 33.7064 260.883 33.4981 260.49 33.3324C260.101 33.1619 259.647 33.0104 259.126 32.8778L257.471 32.4517C256.273 32.1439 255.326 31.6776 254.63 31.0526C253.939 30.4228 253.593 29.5871 253.593 28.5455C253.593 27.6884 253.825 26.938 254.289 26.294C254.758 25.6501 255.395 25.1506 256.2 24.7955C257.005 24.4356 257.916 24.2557 258.934 24.2557C259.967 24.2557 260.871 24.4356 261.647 24.7955C262.429 25.1506 263.042 25.6454 263.487 26.2798C263.932 26.9096 264.162 27.634 264.176 28.4531H261.64ZM272.058 28.0909V30.0795H265.786V28.0909H272.058ZM267.335 25.4773H269.906V35.7188C269.906 36.0644 269.958 36.3295 270.062 36.5142C270.171 36.6941 270.313 36.8172 270.488 36.8835C270.663 36.9498 270.857 36.983 271.07 36.983C271.231 36.983 271.378 36.9711 271.511 36.9474C271.648 36.9238 271.752 36.9025 271.823 36.8835L272.256 38.8935C272.119 38.9408 271.923 38.9929 271.667 39.0497C271.416 39.1065 271.108 39.1397 270.744 39.1491C270.1 39.1681 269.52 39.071 269.004 38.858C268.487 38.6402 268.078 38.304 267.775 37.8494C267.477 37.3949 267.33 36.8267 267.335 36.1449V25.4773ZM274.208 39V28.0909H276.701V29.9091H276.814C277.013 29.2794 277.354 28.794 277.837 28.4531C278.325 28.1075 278.881 27.9347 279.506 27.9347C279.648 27.9347 279.807 27.9418 279.982 27.956C280.162 27.9654 280.311 27.982 280.429 28.0057V30.3707C280.32 30.3329 280.148 30.2997 279.911 30.2713C279.679 30.2382 279.454 30.2216 279.236 30.2216C278.767 30.2216 278.346 30.3234 277.972 30.527C277.603 30.7259 277.311 31.0028 277.098 31.358C276.885 31.7131 276.779 32.1226 276.779 32.5866V39H274.208ZM285.081 39.2202C284.39 39.2202 283.767 39.0971 283.213 38.8509C282.664 38.5999 282.229 38.2306 281.907 37.7429C281.589 37.2552 281.431 36.6539 281.431 35.9389C281.431 35.3234 281.544 34.8144 281.772 34.4119C281.999 34.0095 282.309 33.6875 282.702 33.446C283.095 33.2045 283.538 33.0223 284.03 32.8991C284.527 32.7713 285.041 32.679 285.571 32.6222C286.211 32.5559 286.729 32.4967 287.127 32.4446C287.525 32.3878 287.813 32.3026 287.993 32.1889C288.178 32.0705 288.27 31.8883 288.27 31.642V31.5994C288.27 31.0644 288.112 30.6501 287.794 30.3565C287.477 30.063 287.02 29.9162 286.424 29.9162C285.794 29.9162 285.294 30.0535 284.925 30.3281C284.56 30.6027 284.314 30.9271 284.186 31.3011L281.786 30.9602C281.975 30.2973 282.288 29.7434 282.723 29.2983C283.159 28.8485 283.692 28.5123 284.321 28.2898C284.951 28.0625 285.647 27.9489 286.409 27.9489C286.935 27.9489 287.458 28.0104 287.979 28.1335C288.5 28.2566 288.976 28.4602 289.407 28.7443C289.837 29.0237 290.183 29.4048 290.444 29.8878C290.709 30.3707 290.841 30.9744 290.841 31.6989V39H288.37V37.5014H288.284C288.128 37.8045 287.908 38.0885 287.624 38.3537C287.345 38.6141 286.992 38.8248 286.566 38.9858C286.144 39.142 285.65 39.2202 285.081 39.2202ZM285.749 37.331C286.265 37.331 286.712 37.2292 287.091 37.0256C287.47 36.8172 287.761 36.5426 287.965 36.2017C288.173 35.8608 288.277 35.4891 288.277 35.0866V33.8011C288.197 33.8674 288.06 33.929 287.865 33.9858C287.676 34.0426 287.463 34.0923 287.226 34.1349C286.989 34.1776 286.755 34.2154 286.523 34.2486C286.291 34.2817 286.09 34.3101 285.919 34.3338C285.536 34.3859 285.193 34.4711 284.89 34.5895C284.587 34.7079 284.347 34.8736 284.172 35.0866C283.997 35.295 283.909 35.5649 283.909 35.8963C283.909 36.3698 284.082 36.7273 284.428 36.9688C284.774 37.2102 285.214 37.331 285.749 37.331ZM298.874 28.0909V30.0795H292.603V28.0909H298.874ZM294.151 25.4773H296.722V35.7188C296.722 36.0644 296.774 36.3295 296.878 36.5142C296.987 36.6941 297.129 36.8172 297.304 36.8835C297.48 36.9498 297.674 36.983 297.887 36.983C298.048 36.983 298.194 36.9711 298.327 36.9474C298.464 36.9238 298.569 36.9025 298.64 36.8835L299.073 38.8935C298.935 38.9408 298.739 38.9929 298.483 39.0497C298.232 39.1065 297.925 39.1397 297.56 39.1491C296.916 39.1681 296.336 39.071 295.82 38.858C295.304 38.6402 294.894 38.304 294.591 37.8494C294.293 37.3949 294.146 36.8267 294.151 36.1449V25.4773ZM305.737 39.2131C304.643 39.2131 303.698 38.9858 302.903 38.5312C302.112 38.072 301.504 37.4233 301.077 36.5852C300.651 35.7424 300.438 34.7505 300.438 33.6094C300.438 32.4872 300.651 31.5024 301.077 30.6548C301.508 29.8026 302.11 29.1397 302.881 28.6662C303.653 28.188 304.56 27.9489 305.602 27.9489C306.274 27.9489 306.908 28.0578 307.505 28.2756C308.106 28.4886 308.637 28.8201 309.096 29.2699C309.56 29.7197 309.924 30.2926 310.19 30.9886C310.455 31.6799 310.587 32.5038 310.587 33.4602V34.2486H301.646V32.5156H308.123C308.118 32.0232 308.012 31.5852 307.803 31.2017C307.595 30.8134 307.304 30.508 306.93 30.2855C306.56 30.063 306.129 29.9517 305.637 29.9517C305.112 29.9517 304.65 30.0795 304.252 30.3352C303.854 30.5862 303.544 30.9176 303.322 31.3295C303.104 31.7367 302.993 32.1842 302.988 32.6719V34.1847C302.988 34.8191 303.104 35.3636 303.336 35.8182C303.568 36.268 303.892 36.6136 304.309 36.8551C304.726 37.0919 305.213 37.2102 305.772 37.2102C306.146 37.2102 306.485 37.1581 306.788 37.054C307.091 36.9451 307.353 36.7865 307.576 36.5781C307.799 36.3698 307.967 36.1117 308.08 35.804L310.481 36.0739C310.329 36.7083 310.04 37.2623 309.614 37.7358C309.193 38.2045 308.653 38.5691 307.995 38.8295C307.337 39.0852 306.584 39.2131 305.737 39.2131ZM317.507 43.3182C316.583 43.3182 315.79 43.1927 315.127 42.9418C314.465 42.6955 313.932 42.3641 313.529 41.9474C313.127 41.5308 312.848 41.0691 312.691 40.5625L315.007 40.0014C315.111 40.2145 315.262 40.4252 315.461 40.6335C315.66 40.8466 315.928 41.0218 316.264 41.1591C316.605 41.3011 317.033 41.3722 317.549 41.3722C318.279 41.3722 318.882 41.1946 319.36 40.8395C319.839 40.4891 320.078 39.9115 320.078 39.1065V37.0398H319.95C319.817 37.3049 319.623 37.5772 319.368 37.8565C319.117 38.1359 318.783 38.3703 318.366 38.5597C317.954 38.7491 317.436 38.8438 316.811 38.8438C315.973 38.8438 315.213 38.6473 314.531 38.2543C313.854 37.8565 313.314 37.2647 312.912 36.4787C312.514 35.688 312.315 34.6984 312.315 33.5099C312.315 32.312 312.514 31.3011 312.912 30.4773C313.314 29.6487 313.856 29.0213 314.538 28.5952C315.22 28.1643 315.98 27.9489 316.818 27.9489C317.457 27.9489 317.983 28.0578 318.395 28.2756C318.811 28.4886 319.143 28.7467 319.389 29.0497C319.635 29.348 319.822 29.6297 319.95 29.8949H320.092V28.0909H322.627V39.1776C322.627 40.1103 322.405 40.8821 321.96 41.4929C321.515 42.1037 320.906 42.5606 320.135 42.8636C319.363 43.1667 318.487 43.3182 317.507 43.3182ZM317.528 36.8267C318.073 36.8267 318.537 36.6941 318.92 36.429C319.304 36.1638 319.595 35.7827 319.794 35.2855C319.993 34.7884 320.092 34.1918 320.092 33.4957C320.092 32.8092 319.993 32.2079 319.794 31.6918C319.6 31.1757 319.311 30.7756 318.927 30.4915C318.548 30.2027 318.082 30.0582 317.528 30.0582C316.955 30.0582 316.477 30.2074 316.093 30.5057C315.71 30.804 315.421 31.2135 315.227 31.7344C315.033 32.2505 314.936 32.8376 314.936 33.4957C314.936 34.1634 315.033 34.7481 315.227 35.25C315.426 35.7472 315.717 36.1354 316.1 36.4148C316.489 36.6894 316.965 36.8267 317.528 36.8267ZM325.262 39V28.0909H327.833V39H325.262ZM326.555 26.5426C326.148 26.5426 325.797 26.4077 325.504 26.1378C325.21 25.8632 325.064 25.5341 325.064 25.1506C325.064 24.7623 325.21 24.4332 325.504 24.1634C325.797 23.8887 326.148 23.7514 326.555 23.7514C326.967 23.7514 327.317 23.8887 327.606 24.1634C327.9 24.4332 328.047 24.7623 328.047 25.1506C328.047 25.5341 327.9 25.8632 327.606 26.1378C327.317 26.4077 326.967 26.5426 326.555 26.5426ZM335.236 39.2131C334.147 39.2131 333.212 38.974 332.43 38.4957C331.654 38.0175 331.055 37.357 330.634 36.5142C330.217 35.6667 330.009 34.6913 330.009 33.5881C330.009 32.4801 330.222 31.5024 330.648 30.6548C331.074 29.8026 331.675 29.1397 332.452 28.6662C333.233 28.188 334.156 27.9489 335.222 27.9489C336.107 27.9489 336.891 28.1122 337.572 28.4389C338.259 28.7609 338.806 29.2178 339.213 29.8097C339.62 30.3968 339.852 31.0833 339.909 31.8693H337.452C337.352 31.3437 337.116 30.9058 336.741 30.5554C336.372 30.2003 335.877 30.0227 335.257 30.0227C334.732 30.0227 334.27 30.1648 333.872 30.4489C333.474 30.7282 333.164 31.1307 332.942 31.6562C332.724 32.1818 332.615 32.8116 332.615 33.5455C332.615 34.2888 332.724 34.928 332.942 35.4631C333.16 35.9934 333.465 36.4029 333.858 36.6918C334.256 36.9759 334.722 37.1179 335.257 37.1179C335.636 37.1179 335.974 37.0469 336.273 36.9048C336.576 36.758 336.829 36.5473 337.033 36.2727C337.236 35.9981 337.376 35.6643 337.452 35.2713H339.909C339.848 36.0431 339.62 36.7273 339.227 37.3239C338.834 37.9157 338.299 38.3797 337.622 38.7159C336.945 39.0473 336.15 39.2131 335.236 39.2131ZM255.679 48.4545H258.903L263.221 58.9943H263.392L267.71 48.4545H270.934V63H268.406V53.0071H268.271L264.251 62.9574H262.362L258.342 52.9858H258.207V63H255.679V48.4545ZM276.829 63.2202C276.138 63.2202 275.515 63.0971 274.961 62.8509C274.412 62.5999 273.977 62.2306 273.655 61.7429C273.337 61.2552 273.179 60.6539 273.179 59.9389C273.179 59.3234 273.292 58.8144 273.52 58.4119C273.747 58.0095 274.057 57.6875 274.45 57.446C274.843 57.2045 275.286 57.0223 275.778 56.8991C276.275 56.7713 276.789 56.679 277.319 56.6222C277.959 56.5559 278.477 56.4967 278.875 56.4446C279.273 56.3878 279.561 56.3026 279.741 56.1889C279.926 56.0705 280.018 55.8883 280.018 55.642V55.5994C280.018 55.0644 279.86 54.6501 279.542 54.3565C279.225 54.063 278.768 53.9162 278.172 53.9162C277.542 53.9162 277.042 54.0535 276.673 54.3281C276.309 54.6027 276.062 54.9271 275.934 55.3011L273.534 54.9602C273.723 54.2973 274.036 53.7434 274.471 53.2983C274.907 52.8485 275.44 52.5123 276.069 52.2898C276.699 52.0625 277.395 51.9489 278.157 51.9489C278.683 51.9489 279.206 52.0104 279.727 52.1335C280.248 52.2566 280.724 52.4602 281.155 52.7443C281.586 53.0237 281.931 53.4048 282.192 53.8878C282.457 54.3707 282.589 54.9744 282.589 55.6989V63H280.118V61.5014H280.032C279.876 61.8045 279.656 62.0885 279.372 62.3537C279.093 62.6141 278.74 62.8248 278.314 62.9858C277.892 63.142 277.398 63.2202 276.829 63.2202ZM277.497 61.331C278.013 61.331 278.461 61.2292 278.839 61.0256C279.218 60.8172 279.509 60.5426 279.713 60.2017C279.921 59.8608 280.025 59.4891 280.025 59.0866V57.8011C279.945 57.8674 279.808 57.929 279.613 57.9858C279.424 58.0426 279.211 58.0923 278.974 58.1349C278.738 58.1776 278.503 58.2154 278.271 58.2486C278.039 58.2817 277.838 58.3101 277.667 58.3338C277.284 58.3859 276.941 58.4711 276.638 58.5895C276.335 58.7079 276.095 58.8736 275.92 59.0866C275.745 59.295 275.657 59.5649 275.657 59.8963C275.657 60.3698 275.83 60.7273 276.176 60.9688C276.522 61.2102 276.962 61.331 277.497 61.331ZM285.175 67.0909V52.0909H287.703V53.8949H287.852C287.985 53.6297 288.172 53.348 288.413 53.0497C288.655 52.7467 288.981 52.4886 289.393 52.2756C289.805 52.0578 290.331 51.9489 290.97 51.9489C291.813 51.9489 292.573 52.1643 293.25 52.5952C293.932 53.0213 294.471 53.6534 294.869 54.4915C295.272 55.3248 295.473 56.3475 295.473 57.5597C295.473 58.7576 295.276 59.7756 294.883 60.6136C294.49 61.4517 293.955 62.0909 293.278 62.5312C292.601 62.9716 291.834 63.1918 290.977 63.1918C290.352 63.1918 289.834 63.0876 289.422 62.8793C289.01 62.6709 288.678 62.42 288.427 62.1264C288.181 61.8281 287.989 61.5464 287.852 61.2812H287.746V67.0909H285.175ZM287.696 57.5455C287.696 58.2509 287.795 58.8688 287.994 59.3991C288.198 59.9295 288.489 60.3437 288.868 60.642C289.251 60.9356 289.715 61.0824 290.26 61.0824C290.828 61.0824 291.304 60.9309 291.687 60.6278C292.071 60.3201 292.36 59.901 292.554 59.3707C292.753 58.8357 292.852 58.2273 292.852 57.5455C292.852 56.8684 292.755 56.267 292.561 55.7415C292.367 55.2159 292.078 54.804 291.694 54.5057C291.311 54.2074 290.833 54.0582 290.26 54.0582C289.711 54.0582 289.244 54.2027 288.861 54.4915C288.477 54.7803 288.186 55.1851 287.987 55.706C287.793 56.2268 287.696 56.84 287.696 57.5455ZM297.675 67.0909V52.0909H300.203V53.8949H300.352C300.485 53.6297 300.672 53.348 300.913 53.0497C301.155 52.7467 301.481 52.4886 301.893 52.2756C302.305 52.0578 302.831 51.9489 303.47 51.9489C304.313 51.9489 305.073 52.1643 305.75 52.5952C306.432 53.0213 306.971 53.6534 307.369 54.4915C307.772 55.3248 307.973 56.3475 307.973 57.5597C307.973 58.7576 307.776 59.7756 307.383 60.6136C306.99 61.4517 306.455 62.0909 305.778 62.5312C305.101 62.9716 304.334 63.1918 303.477 63.1918C302.852 63.1918 302.334 63.0876 301.922 62.8793C301.51 62.6709 301.178 62.42 300.927 62.1264C300.681 61.8281 300.489 61.5464 300.352 61.2812H300.246V67.0909H297.675ZM300.196 57.5455C300.196 58.2509 300.295 58.8688 300.494 59.3991C300.698 59.9295 300.989 60.3437 301.368 60.642C301.751 60.9356 302.215 61.0824 302.76 61.0824C303.328 61.0824 303.804 60.9309 304.187 60.6278C304.571 60.3201 304.86 59.901 305.054 59.3707C305.253 58.8357 305.352 58.2273 305.352 57.5455C305.352 56.8684 305.255 56.267 305.061 55.7415C304.867 55.2159 304.578 54.804 304.194 54.5057C303.811 54.2074 303.333 54.0582 302.76 54.0582C302.211 54.0582 301.744 54.2027 301.361 54.4915C300.977 54.7803 300.686 55.1851 300.487 55.706C300.293 56.2268 300.196 56.84 300.196 57.5455ZM310.175 63V52.0909H312.746V63H310.175ZM311.467 50.5426C311.06 50.5426 310.71 50.4077 310.416 50.1378C310.122 49.8632 309.976 49.5341 309.976 49.1506C309.976 48.7623 310.122 48.4332 310.416 48.1634C310.71 47.8887 311.06 47.7514 311.467 47.7514C311.879 47.7514 312.229 47.8887 312.518 48.1634C312.812 48.4332 312.959 48.7623 312.959 49.1506C312.959 49.5341 312.812 49.8632 312.518 50.1378C312.229 50.4077 311.879 50.5426 311.467 50.5426ZM317.96 56.608V63H315.389V52.0909H317.847V53.9446H317.975C318.226 53.3338 318.626 52.8485 319.175 52.4886C319.729 52.1288 320.413 51.9489 321.227 51.9489C321.98 51.9489 322.636 52.1098 323.195 52.4318C323.758 52.7538 324.194 53.2202 324.502 53.831C324.814 54.4418 324.968 55.1828 324.963 56.054V63H322.392V56.4517C322.392 55.7225 322.203 55.152 321.824 54.7401C321.45 54.3281 320.932 54.1222 320.269 54.1222C319.819 54.1222 319.419 54.2216 319.068 54.4205C318.723 54.6146 318.45 54.8963 318.252 55.2656C318.057 55.6349 317.96 56.0824 317.96 56.608ZM332.321 67.3182C331.398 67.3182 330.605 67.1927 329.942 66.9418C329.279 66.6955 328.746 66.3641 328.344 65.9474C327.941 65.5308 327.662 65.0691 327.506 64.5625L329.821 64.0014C329.925 64.2145 330.077 64.4252 330.276 64.6335C330.475 64.8466 330.742 65.0218 331.078 65.1591C331.419 65.3011 331.848 65.3722 332.364 65.3722C333.093 65.3722 333.697 65.1946 334.175 64.8395C334.653 64.4891 334.892 63.9115 334.892 63.1065V61.0398H334.764C334.632 61.3049 334.438 61.5772 334.182 61.8565C333.931 62.1359 333.597 62.3703 333.181 62.5597C332.769 62.7491 332.25 62.8438 331.625 62.8438C330.787 62.8438 330.027 62.6473 329.345 62.2543C328.668 61.8565 328.128 61.2647 327.726 60.4787C327.328 59.688 327.129 58.6984 327.129 57.5099C327.129 56.312 327.328 55.3011 327.726 54.4773C328.128 53.6487 328.671 53.0213 329.352 52.5952C330.034 52.1643 330.794 51.9489 331.632 51.9489C332.271 51.9489 332.797 52.0578 333.209 52.2756C333.626 52.4886 333.957 52.7467 334.203 53.0497C334.45 53.348 334.637 53.6297 334.764 53.8949H334.906V52.0909H337.442V63.1776C337.442 64.1103 337.219 64.8821 336.774 65.4929C336.329 66.1037 335.721 66.5606 334.949 66.8636C334.177 67.1667 333.301 67.3182 332.321 67.3182ZM332.343 60.8267C332.887 60.8267 333.351 60.6941 333.735 60.429C334.118 60.1638 334.409 59.7827 334.608 59.2855C334.807 58.7884 334.906 58.1918 334.906 57.4957C334.906 56.8092 334.807 56.2079 334.608 55.6918C334.414 55.1757 334.125 54.7756 333.742 54.4915C333.363 54.2027 332.896 54.0582 332.343 54.0582C331.77 54.0582 331.291 54.2074 330.908 54.5057C330.524 54.804 330.235 55.2135 330.041 55.7344C329.847 56.2505 329.75 56.8376 329.75 57.4957C329.75 58.1634 329.847 58.7481 330.041 59.25C330.24 59.7472 330.531 60.1354 330.915 60.4148C331.303 60.6894 331.779 60.8267 332.343 60.8267Z" fill="#717171"/>
<path d="M663.166 39H660.353L665.474 24.4545H668.727L673.855 39H671.042L667.157 27.4375H667.044L663.166 39ZM663.258 33.2969H670.929V35.4134H663.258V33.2969ZM678.228 32.608V39H675.657V28.0909H678.114V29.9446H678.242C678.493 29.3338 678.893 28.8485 679.442 28.4886C679.996 28.1288 680.681 27.9489 681.495 27.9489C682.248 27.9489 682.904 28.1098 683.462 28.4318C684.026 28.7538 684.461 29.2202 684.769 29.831C685.082 30.4418 685.236 31.1828 685.231 32.054V39H682.66V32.4517C682.66 31.7225 682.47 31.152 682.092 30.7401C681.718 30.3281 681.199 30.1222 680.536 30.1222C680.086 30.1222 679.686 30.2216 679.336 30.4205C678.99 30.6146 678.718 30.8963 678.519 31.2656C678.325 31.6349 678.228 32.0824 678.228 32.608ZM690.984 39.2202C690.292 39.2202 689.67 39.0971 689.116 38.8509C688.567 38.5999 688.131 38.2306 687.809 37.7429C687.492 37.2552 687.333 36.6539 687.333 35.9389C687.333 35.3234 687.447 34.8144 687.674 34.4119C687.901 34.0095 688.211 33.6875 688.604 33.446C688.997 33.2045 689.44 33.0223 689.933 32.8991C690.43 32.7713 690.943 32.679 691.474 32.6222C692.113 32.5559 692.631 32.4967 693.029 32.4446C693.427 32.3878 693.716 32.3026 693.896 32.1889C694.08 32.0705 694.173 31.8883 694.173 31.642V31.5994C694.173 31.0644 694.014 30.6501 693.697 30.3565C693.379 30.063 692.923 29.9162 692.326 29.9162C691.696 29.9162 691.197 30.0535 690.827 30.3281C690.463 30.6027 690.217 30.9271 690.089 31.3011L687.688 30.9602C687.878 30.2973 688.19 29.7434 688.626 29.2983C689.061 28.8485 689.594 28.5123 690.224 28.2898C690.853 28.0625 691.549 27.9489 692.312 27.9489C692.837 27.9489 693.361 28.0104 693.881 28.1335C694.402 28.2566 694.878 28.4602 695.309 28.7443C695.74 29.0237 696.085 29.4048 696.346 29.8878C696.611 30.3707 696.744 30.9744 696.744 31.6989V39H694.272V37.5014H694.187C694.031 37.8045 693.81 38.0885 693.526 38.3537C693.247 38.6141 692.894 38.8248 692.468 38.9858C692.047 39.142 691.552 39.2202 690.984 39.2202ZM691.651 37.331C692.167 37.331 692.615 37.2292 692.994 37.0256C693.372 36.8172 693.664 36.5426 693.867 36.2017C694.076 35.8608 694.18 35.4891 694.18 35.0866V33.8011C694.099 33.8674 693.962 33.929 693.768 33.9858C693.578 34.0426 693.365 34.0923 693.129 34.1349C692.892 34.1776 692.657 34.2154 692.425 34.2486C692.193 34.2817 691.992 34.3101 691.822 34.3338C691.438 34.3859 691.095 34.4711 690.792 34.5895C690.489 34.7079 690.25 34.8736 690.075 35.0866C689.899 35.295 689.812 35.5649 689.812 35.8963C689.812 36.3698 689.985 36.7273 690.33 36.9688C690.676 37.2102 691.116 37.331 691.651 37.331ZM701.9 24.4545V39H699.329V24.4545H701.9ZM706.142 43.0909C705.791 43.0909 705.467 43.0625 705.169 43.0057C704.875 42.9536 704.641 42.892 704.466 42.821L705.062 40.8182C705.436 40.9271 705.77 40.9792 706.064 40.9744C706.357 40.9697 706.615 40.8774 706.838 40.6974C707.065 40.5223 707.257 40.2287 707.413 39.8168L707.633 39.2273L703.677 28.0909H706.404L708.919 36.3295H709.032L711.554 28.0909H714.288L709.92 40.321C709.717 40.8987 709.447 41.3935 709.11 41.8054C708.774 42.2221 708.362 42.5393 707.875 42.7571C707.392 42.9796 706.814 43.0909 706.142 43.0909ZM724.689 30.9744L722.346 31.2301C722.279 30.9934 722.163 30.7708 721.998 30.5625C721.837 30.3542 721.619 30.1861 721.344 30.0582C721.069 29.9304 720.733 29.8665 720.336 29.8665C719.801 29.8665 719.351 29.9825 718.986 30.2145C718.626 30.4465 718.449 30.7472 718.453 31.1165C718.449 31.4337 718.565 31.6918 718.801 31.8906C719.043 32.0895 719.441 32.2528 719.995 32.3807L721.855 32.7784C722.888 33.0009 723.655 33.3537 724.157 33.8366C724.663 34.3196 724.919 34.9517 724.924 35.733C724.919 36.4195 724.718 37.0256 724.32 37.5511C723.927 38.072 723.38 38.4792 722.679 38.7727C721.979 39.0663 721.174 39.2131 720.265 39.2131C718.929 39.2131 717.855 38.9337 717.04 38.375C716.226 37.8116 715.74 37.0279 715.584 36.0241L718.091 35.7827C718.205 36.2751 718.446 36.6468 718.816 36.8977C719.185 37.1487 719.666 37.2741 720.257 37.2741C720.868 37.2741 721.358 37.1487 721.728 36.8977C722.102 36.6468 722.289 36.3366 722.289 35.9673C722.289 35.6548 722.168 35.3968 721.926 35.1932C721.69 34.9896 721.32 34.8333 720.819 34.7244L718.958 34.3338C717.911 34.116 717.137 33.7491 716.635 33.233C716.133 32.7121 715.885 32.054 715.89 31.2585C715.885 30.5862 716.067 30.0038 716.436 29.5114C716.81 29.0142 717.329 28.6307 717.992 28.3608C718.659 28.0862 719.429 27.9489 720.3 27.9489C721.578 27.9489 722.585 28.2211 723.319 28.7656C724.057 29.3101 724.514 30.0464 724.689 30.9744ZM727.044 39V28.0909H729.615V39H727.044ZM728.336 26.5426C727.929 26.5426 727.579 26.4077 727.285 26.1378C726.992 25.8632 726.845 25.5341 726.845 25.1506C726.845 24.7623 726.992 24.4332 727.285 24.1634C727.579 23.8887 727.929 23.7514 728.336 23.7514C728.748 23.7514 729.099 23.8887 729.387 24.1634C729.681 24.4332 729.828 24.7623 729.828 25.1506C729.828 25.5341 729.681 25.8632 729.387 26.1378C729.099 26.4077 728.748 26.5426 728.336 26.5426ZM740.881 30.9744L738.537 31.2301C738.471 30.9934 738.355 30.7708 738.189 30.5625C738.028 30.3542 737.81 30.1861 737.536 30.0582C737.261 29.9304 736.925 29.8665 736.527 29.8665C735.992 29.8665 735.542 29.9825 735.178 30.2145C734.818 30.4465 734.64 30.7472 734.645 31.1165C734.64 31.4337 734.756 31.6918 734.993 31.8906C735.234 32.0895 735.632 32.2528 736.186 32.3807L738.047 32.7784C739.079 33.0009 739.846 33.3537 740.348 33.8366C740.855 34.3196 741.11 34.9517 741.115 35.733C741.11 36.4195 740.909 37.0256 740.511 37.5511C740.118 38.072 739.571 38.4792 738.871 38.7727C738.17 39.0663 737.365 39.2131 736.456 39.2131C735.121 39.2131 734.046 38.9337 733.232 38.375C732.417 37.8116 731.932 37.0279 731.776 36.0241L734.283 35.7827C734.396 36.2751 734.638 36.6468 735.007 36.8977C735.376 37.1487 735.857 37.2741 736.449 37.2741C737.06 37.2741 737.55 37.1487 737.919 36.8977C738.293 36.6468 738.48 36.3366 738.48 35.9673C738.48 35.6548 738.359 35.3968 738.118 35.1932C737.881 34.9896 737.512 34.8333 737.01 34.7244L735.149 34.3338C734.103 34.116 733.329 33.7491 732.827 33.233C732.325 32.7121 732.076 32.054 732.081 31.2585C732.076 30.5862 732.259 30.0038 732.628 29.5114C733.002 29.0142 733.52 28.6307 734.183 28.3608C734.851 28.0862 735.62 27.9489 736.491 27.9489C737.77 27.9489 738.776 28.2211 739.51 28.7656C740.249 29.3101 740.705 30.0464 740.881 30.9744ZM752.543 39.2131C751.548 39.2131 750.694 39.0331 749.979 38.6733C749.264 38.3134 748.712 37.8281 748.324 37.2173C747.94 36.6018 747.749 35.9081 747.749 35.1364C747.749 34.554 747.867 34.0379 748.104 33.5881C748.345 33.1383 748.677 32.7216 749.098 32.3381C749.524 31.9545 750.017 31.5734 750.575 31.1946L753.153 29.4403C753.532 29.1941 753.819 28.9337 754.013 28.6591C754.212 28.3845 754.311 28.0625 754.311 27.6932C754.311 27.3807 754.179 27.0848 753.913 26.8054C753.653 26.526 753.293 26.3864 752.834 26.3864C752.526 26.3864 752.254 26.4598 752.017 26.6065C751.785 26.7486 751.603 26.9356 751.47 27.1676C751.342 27.3996 751.278 27.6458 751.278 27.9062C751.278 28.2235 751.366 28.5455 751.541 28.8722C751.721 29.1989 751.953 29.5374 752.237 29.8878C752.526 30.2382 752.834 30.6098 753.161 31.0028L759.986 39H757.202L751.534 32.5085C751.113 32.0161 750.705 31.5308 750.312 31.0526C749.924 30.5743 749.605 30.0772 749.354 29.5611C749.107 29.0402 748.984 28.4768 748.984 27.8707C748.984 27.1842 749.143 26.571 749.46 26.0312C749.777 25.4867 750.22 25.0582 750.788 24.7457C751.361 24.4332 752.031 24.277 752.798 24.277C753.565 24.277 754.223 24.4285 754.773 24.7315C755.322 25.0346 755.746 25.437 756.044 25.9389C756.342 26.4408 756.491 26.9877 756.491 27.5795C756.491 28.2661 756.321 28.8816 755.98 29.4261C755.639 29.9659 755.166 30.456 754.56 30.8963L751.619 33.0483C751.136 33.3987 750.791 33.7538 750.582 34.1136C750.374 34.4687 750.27 34.7718 750.27 35.0227C750.27 35.4062 750.367 35.7543 750.561 36.0668C750.755 36.3793 751.027 36.6302 751.378 36.8196C751.733 37.0043 752.147 37.0966 752.621 37.0966C753.142 37.0966 753.655 36.9806 754.162 36.7486C754.669 36.5118 755.13 36.1757 755.547 35.7401C755.964 35.3045 756.295 34.7836 756.541 34.1776C756.787 33.5668 756.911 32.8897 756.911 32.1463H759.119C759.119 33.0649 759.018 33.8651 758.814 34.5469C758.61 35.224 758.348 35.7969 758.026 36.2656C757.704 36.7296 757.363 37.1013 757.003 37.3807C756.889 37.4612 756.78 37.5417 756.676 37.6222C756.572 37.7027 756.463 37.7831 756.349 37.8636C755.838 38.3277 755.239 38.6686 754.553 38.8864C753.871 39.1042 753.201 39.2131 752.543 39.2131ZM663.405 63H658.476V48.4545H663.504C664.948 48.4545 666.189 48.7457 667.226 49.3281C668.267 49.9058 669.068 50.7367 669.626 51.821C670.185 52.9053 670.464 54.2027 670.464 55.7131C670.464 57.2282 670.183 58.5303 669.619 59.6193C669.06 60.7083 668.253 61.544 667.197 62.1264C666.146 62.7088 664.882 63 663.405 63ZM661.111 60.7202H663.277C664.29 60.7202 665.135 60.5355 665.812 60.1662C666.489 59.7921 666.998 59.2358 667.339 58.4972C667.68 57.7538 667.851 56.8258 667.851 55.7131C667.851 54.6004 667.68 53.6771 667.339 52.9432C666.998 52.2045 666.494 51.6529 665.827 51.2884C665.164 50.919 664.34 50.7344 663.355 50.7344H661.111V60.7202ZM672.854 63V52.0909H675.425V63H672.854ZM674.147 50.5426C673.74 50.5426 673.389 50.4077 673.096 50.1378C672.802 49.8632 672.655 49.5341 672.655 49.1506C672.655 48.7623 672.802 48.4332 673.096 48.1634C673.389 47.8887 673.74 47.7514 674.147 47.7514C674.559 47.7514 674.909 47.8887 675.198 48.1634C675.492 48.4332 675.638 48.7623 675.638 49.1506C675.638 49.5341 675.492 49.8632 675.198 50.1378C674.909 50.4077 674.559 50.5426 674.147 50.5426ZM686.691 54.9744L684.347 55.2301C684.281 54.9934 684.165 54.7708 683.999 54.5625C683.838 54.3542 683.621 54.1861 683.346 54.0582C683.071 53.9304 682.735 53.8665 682.338 53.8665C681.802 53.8665 681.353 53.9825 680.988 54.2145C680.628 54.4465 680.451 54.7472 680.455 55.1165C680.451 55.4337 680.567 55.6918 680.803 55.8906C681.045 56.0895 681.443 56.2528 681.997 56.3807L683.857 56.7784C684.89 57.0009 685.657 57.3537 686.159 57.8366C686.665 58.3196 686.921 58.9517 686.926 59.733C686.921 60.4195 686.72 61.0256 686.322 61.5511C685.929 62.072 685.382 62.4792 684.681 62.7727C683.981 63.0663 683.176 63.2131 682.267 63.2131C680.931 63.2131 679.856 62.9337 679.042 62.375C678.228 61.8116 677.742 61.0279 677.586 60.0241L680.093 59.7827C680.207 60.2751 680.448 60.6468 680.818 60.8977C681.187 61.1487 681.668 61.2741 682.259 61.2741C682.87 61.2741 683.36 61.1487 683.73 60.8977C684.104 60.6468 684.291 60.3366 684.291 59.9673C684.291 59.6548 684.17 59.3968 683.928 59.1932C683.692 58.9896 683.322 58.8333 682.82 58.7244L680.96 58.3338C679.913 58.116 679.139 57.7491 678.637 57.233C678.135 56.7121 677.887 56.054 677.892 55.2585C677.887 54.5862 678.069 54.0038 678.438 53.5114C678.812 53.0142 679.331 52.6307 679.994 52.3608C680.661 52.0862 681.431 51.9489 682.302 51.9489C683.58 51.9489 684.587 52.2211 685.32 52.7656C686.059 53.3101 686.516 54.0464 686.691 54.9744ZM693.804 63.2131C692.715 63.2131 691.78 62.974 690.999 62.4957C690.222 62.0175 689.623 61.357 689.202 60.5142C688.785 59.6667 688.577 58.6913 688.577 57.5881C688.577 56.4801 688.79 55.5024 689.216 54.6548C689.642 53.8026 690.244 53.1397 691.02 52.6662C691.801 52.188 692.725 51.9489 693.79 51.9489C694.675 51.9489 695.459 52.1122 696.141 52.4389C696.827 52.7609 697.374 53.2178 697.781 53.8097C698.189 54.3968 698.421 55.0833 698.477 55.8693H696.02C695.921 55.3437 695.684 54.9058 695.31 54.5554C694.941 54.2003 694.446 54.0227 693.825 54.0227C693.3 54.0227 692.838 54.1648 692.441 54.4489C692.043 54.7282 691.733 55.1307 691.51 55.6562C691.292 56.1818 691.183 56.8116 691.183 57.5455C691.183 58.2888 691.292 58.928 691.51 59.4631C691.728 59.9934 692.033 60.4029 692.426 60.6918C692.824 60.9759 693.29 61.1179 693.825 61.1179C694.204 61.1179 694.543 61.0469 694.841 60.9048C695.144 60.758 695.397 60.5473 695.601 60.2727C695.805 59.9981 695.944 59.6643 696.02 59.2713H698.477C698.416 60.0431 698.189 60.7273 697.796 61.3239C697.403 61.9157 696.868 62.3797 696.191 62.7159C695.513 63.0473 694.718 63.2131 693.804 63.2131ZM707.542 58.4119V52.0909H710.113V63H707.62V61.0611H707.506C707.26 61.6719 706.855 62.1714 706.292 62.5597C705.733 62.9479 705.044 63.142 704.225 63.142C703.51 63.142 702.878 62.9834 702.329 62.6662C701.784 62.3442 701.358 61.8778 701.05 61.267C700.742 60.6515 700.589 59.9081 700.589 59.0369V52.0909H703.16V58.6392C703.16 59.3305 703.349 59.8797 703.728 60.2869C704.107 60.6941 704.604 60.8977 705.219 60.8977C705.598 60.8977 705.965 60.8054 706.32 60.6207C706.675 60.4361 706.966 60.1615 707.194 59.7969C707.426 59.4276 707.542 58.9659 707.542 58.4119ZM721.379 54.9744L719.035 55.2301C718.969 54.9934 718.853 54.7708 718.687 54.5625C718.526 54.3542 718.308 54.1861 718.034 54.0582C717.759 53.9304 717.423 53.8665 717.025 53.8665C716.49 53.8665 716.04 53.9825 715.676 54.2145C715.316 54.4465 715.138 54.7472 715.143 55.1165C715.138 55.4337 715.254 55.6918 715.491 55.8906C715.732 56.0895 716.13 56.2528 716.684 56.3807L718.545 56.7784C719.577 57.0009 720.344 57.3537 720.846 57.8366C721.353 58.3196 721.608 58.9517 721.613 59.733C721.608 60.4195 721.407 61.0256 721.009 61.5511C720.616 62.072 720.07 62.4792 719.369 62.7727C718.668 63.0663 717.863 63.2131 716.954 63.2131C715.619 63.2131 714.544 62.9337 713.73 62.375C712.915 61.8116 712.43 61.0279 712.274 60.0241L714.781 59.7827C714.894 60.2751 715.136 60.6468 715.505 60.8977C715.874 61.1487 716.355 61.2741 716.947 61.2741C717.558 61.2741 718.048 61.1487 718.417 60.8977C718.791 60.6468 718.978 60.3366 718.978 59.9673C718.978 59.6548 718.857 59.3968 718.616 59.1932C718.379 58.9896 718.01 58.8333 717.508 58.7244L715.647 58.3338C714.601 58.116 713.827 57.7491 713.325 57.233C712.823 56.7121 712.574 56.054 712.579 55.2585C712.574 54.5862 712.757 54.0038 713.126 53.5114C713.5 53.0142 714.018 52.6307 714.681 52.3608C715.349 52.0862 716.118 51.9489 716.99 51.9489C718.268 51.9489 719.274 52.2211 720.008 52.7656C720.747 53.3101 721.204 54.0464 721.379 54.9744ZM732.355 54.9744L730.012 55.2301C729.945 54.9934 729.829 54.7708 729.664 54.5625C729.503 54.3542 729.285 54.1861 729.01 54.0582C728.735 53.9304 728.399 53.8665 728.002 53.8665C727.467 53.8665 727.017 53.9825 726.652 54.2145C726.292 54.4465 726.115 54.7472 726.119 55.1165C726.115 55.4337 726.231 55.6918 726.468 55.8906C726.709 56.0895 727.107 56.2528 727.661 56.3807L729.521 56.7784C730.554 57.0009 731.321 57.3537 731.823 57.8366C732.329 58.3196 732.585 58.9517 732.59 59.733C732.585 60.4195 732.384 61.0256 731.986 61.5511C731.593 62.072 731.046 62.4792 730.345 62.7727C729.645 63.0663 728.84 63.2131 727.931 63.2131C726.595 63.2131 725.521 62.9337 724.706 62.375C723.892 61.8116 723.406 61.0279 723.25 60.0241L725.757 59.7827C725.871 60.2751 726.112 60.6468 726.482 60.8977C726.851 61.1487 727.332 61.2741 727.923 61.2741C728.534 61.2741 729.024 61.1487 729.394 60.8977C729.768 60.6468 729.955 60.3366 729.955 59.9673C729.955 59.6548 729.834 59.3968 729.593 59.1932C729.356 58.9896 728.986 58.8333 728.485 58.7244L726.624 58.3338C725.577 58.116 724.803 57.7491 724.301 57.233C723.799 56.7121 723.551 56.054 723.556 55.2585C723.551 54.5862 723.733 54.0038 724.102 53.5114C724.477 53.0142 724.995 52.6307 725.658 52.3608C726.325 52.0862 727.095 51.9489 727.966 51.9489C729.244 51.9489 730.251 52.2211 730.985 52.7656C731.723 53.3101 732.18 54.0464 732.355 54.9744ZM734.71 63V52.0909H737.281V63H734.71ZM736.002 50.5426C735.595 50.5426 735.245 50.4077 734.951 50.1378C734.658 49.8632 734.511 49.5341 734.511 49.1506C734.511 48.7623 734.658 48.4332 734.951 48.1634C735.245 47.8887 735.595 47.7514 736.002 47.7514C736.414 47.7514 736.765 47.8887 737.053 48.1634C737.347 48.4332 737.494 48.7623 737.494 49.1506C737.494 49.5341 737.347 49.8632 737.053 50.1378C736.765 50.4077 736.414 50.5426 736.002 50.5426ZM744.683 63.2131C743.618 63.2131 742.694 62.9787 741.913 62.5099C741.132 62.0412 740.526 61.3854 740.095 60.5426C739.669 59.6998 739.456 58.715 739.456 57.5881C739.456 56.4612 739.669 55.474 740.095 54.6264C740.526 53.7789 741.132 53.1207 741.913 52.652C742.694 52.1832 743.618 51.9489 744.683 51.9489C745.748 51.9489 746.672 52.1832 747.453 52.652C748.234 53.1207 748.838 53.7789 749.264 54.6264C749.695 55.474 749.91 56.4612 749.91 57.5881C749.91 58.715 749.695 59.6998 749.264 60.5426C748.838 61.3854 748.234 62.0412 747.453 62.5099C746.672 62.9787 745.748 63.2131 744.683 63.2131ZM744.697 61.1534C745.275 61.1534 745.758 60.9948 746.146 60.6776C746.534 60.3556 746.823 59.9247 747.013 59.3849C747.207 58.8452 747.304 58.2438 747.304 57.581C747.304 56.9134 747.207 56.3097 747.013 55.7699C746.823 55.2254 746.534 54.7921 746.146 54.4702C745.758 54.1482 745.275 53.9872 744.697 53.9872C744.105 53.9872 743.613 54.1482 743.22 54.4702C742.832 54.7921 742.541 55.2254 742.346 55.7699C742.157 56.3097 742.062 56.9134 742.062 57.581C742.062 58.2438 742.157 58.8452 742.346 59.3849C742.541 59.9247 742.832 60.3556 743.22 60.6776C743.613 60.9948 744.105 61.1534 744.697 61.1534ZM754.664 56.608V63H752.093V52.0909H754.55V53.9446H754.678C754.929 53.3338 755.329 52.8485 755.878 52.4886C756.432 52.1288 757.116 51.9489 757.931 51.9489C758.683 51.9489 759.339 52.1098 759.898 52.4318C760.461 52.7538 760.897 53.2202 761.205 53.831C761.517 54.4418 761.671 55.1828 761.666 56.054V63H759.095V56.4517C759.095 55.7225 758.906 55.152 758.527 54.7401C758.153 54.3281 757.635 54.1222 756.972 54.1222C756.522 54.1222 756.122 54.2216 755.771 54.4205C755.426 54.6146 755.154 54.8963 754.955 55.2656C754.761 55.6349 754.664 56.0824 754.664 56.608Z" fill="#717171"/>
<path d="M1123.02 24.4545L1126.8 35.9034H1126.95L1130.73 24.4545H1133.63L1128.5 39H1125.25L1120.13 24.4545H1123.02ZM1139.09 39.2131C1137.99 39.2131 1137.05 38.9858 1136.25 38.5312C1135.46 38.072 1134.86 37.4233 1134.43 36.5852C1134 35.7424 1133.79 34.7505 1133.79 33.6094C1133.79 32.4872 1134 31.5024 1134.43 30.6548C1134.86 29.8026 1135.46 29.1397 1136.23 28.6662C1137 28.188 1137.91 27.9489 1138.95 27.9489C1139.63 27.9489 1140.26 28.0578 1140.86 28.2756C1141.46 28.4886 1141.99 28.8201 1142.45 29.2699C1142.91 29.7197 1143.28 30.2926 1143.54 30.9886C1143.81 31.6799 1143.94 32.5038 1143.94 33.4602V34.2486H1135V32.5156H1141.47C1141.47 32.0232 1141.36 31.5852 1141.15 31.2017C1140.95 30.8134 1140.66 30.508 1140.28 30.2855C1139.91 30.063 1139.48 29.9517 1138.99 29.9517C1138.46 29.9517 1138 30.0795 1137.6 30.3352C1137.21 30.5862 1136.9 30.9176 1136.67 31.3295C1136.46 31.7367 1136.34 32.1842 1136.34 32.6719V34.1847C1136.34 34.8191 1136.46 35.3636 1136.69 35.8182C1136.92 36.268 1137.24 36.6136 1137.66 36.8551C1138.08 37.0919 1138.56 37.2102 1139.12 37.2102C1139.5 37.2102 1139.84 37.1581 1140.14 37.054C1140.44 36.9451 1140.71 36.7865 1140.93 36.5781C1141.15 36.3698 1141.32 36.1117 1141.43 35.804L1143.83 36.0739C1143.68 36.7083 1143.39 37.2623 1142.97 37.7358C1142.54 38.2045 1142 38.5691 1141.35 38.8295C1140.69 39.0852 1139.94 39.2131 1139.09 39.2131ZM1146.11 39V28.0909H1148.61V29.9091H1148.72C1148.92 29.2794 1149.26 28.794 1149.74 28.4531C1150.23 28.1075 1150.79 27.9347 1151.41 27.9347C1151.55 27.9347 1151.71 27.9418 1151.89 27.956C1152.07 27.9654 1152.22 27.982 1152.34 28.0057V30.3707C1152.23 30.3329 1152.05 30.2997 1151.82 30.2713C1151.59 30.2382 1151.36 30.2216 1151.14 30.2216C1150.67 30.2216 1150.25 30.3234 1149.88 30.527C1149.51 30.7259 1149.22 31.0028 1149 31.358C1148.79 31.7131 1148.69 32.1226 1148.69 32.5866V39H1146.11ZM1154.04 39V28.0909H1156.61V39H1154.04ZM1155.34 26.5426C1154.93 26.5426 1154.58 26.4077 1154.29 26.1378C1153.99 25.8632 1153.84 25.5341 1153.84 25.1506C1153.84 24.7623 1153.99 24.4332 1154.29 24.1634C1154.58 23.8887 1154.93 23.7514 1155.34 23.7514C1155.75 23.7514 1156.1 23.8887 1156.39 24.1634C1156.68 24.4332 1156.83 24.7623 1156.83 25.1506C1156.83 25.5341 1156.68 25.8632 1156.39 26.1378C1156.1 26.4077 1155.75 26.5426 1155.34 26.5426ZM1164.78 28.0909V30.0795H1158.34V28.0909H1164.78ZM1159.95 39V27.0611C1159.95 26.3272 1160.1 25.7164 1160.4 25.2287C1160.71 24.741 1161.12 24.3764 1161.64 24.1349C1162.15 23.8935 1162.73 23.7727 1163.36 23.7727C1163.8 23.7727 1164.2 23.8082 1164.54 23.8793C1164.89 23.9503 1165.14 24.0142 1165.31 24.071L1164.8 26.0597C1164.69 26.0265 1164.55 25.9934 1164.39 25.9602C1164.22 25.9223 1164.04 25.9034 1163.83 25.9034C1163.35 25.9034 1163.02 26.0194 1162.82 26.2514C1162.62 26.4787 1162.53 26.8054 1162.53 27.2315V39H1159.95ZM1168.4 43.0909C1168.05 43.0909 1167.72 43.0625 1167.42 43.0057C1167.13 42.9536 1166.89 42.892 1166.72 42.821L1167.32 40.8182C1167.69 40.9271 1168.02 40.9792 1168.32 40.9744C1168.61 40.9697 1168.87 40.8774 1169.09 40.6974C1169.32 40.5223 1169.51 40.2287 1169.67 39.8168L1169.89 39.2273L1165.93 28.0909H1168.66L1171.17 36.3295H1171.29L1173.81 28.0909H1176.54L1172.17 40.321C1171.97 40.8987 1171.7 41.3935 1171.36 41.8054C1171.03 42.2221 1170.62 42.5393 1170.13 42.7571C1169.65 42.9796 1169.07 43.0909 1168.4 43.0909ZM1087.89 63V48.4545H1097.35V50.6634H1090.52V54.6122H1096.86V56.821H1090.52V60.7912H1097.4V63H1087.89ZM1102.02 52.0909L1104.23 56.1179L1106.46 52.0909H1109.18L1105.9 57.5455L1109.24 63H1106.53L1104.23 59.0724L1101.94 63H1099.21L1102.54 57.5455L1099.3 52.0909H1102.02ZM1111.17 67.0909V52.0909H1113.7V53.8949H1113.85C1113.98 53.6297 1114.17 53.348 1114.41 53.0497C1114.65 52.7467 1114.98 52.4886 1115.39 52.2756C1115.8 52.0578 1116.33 51.9489 1116.97 51.9489C1117.81 51.9489 1118.57 52.1643 1119.25 52.5952C1119.93 53.0213 1120.47 53.6534 1120.87 54.4915C1121.27 55.3248 1121.47 56.3475 1121.47 57.5597C1121.47 58.7576 1121.27 59.7756 1120.88 60.6136C1120.49 61.4517 1119.95 62.0909 1119.28 62.5312C1118.6 62.9716 1117.83 63.1918 1116.98 63.1918C1116.35 63.1918 1115.83 63.0876 1115.42 62.8793C1115.01 62.6709 1114.68 62.42 1114.43 62.1264C1114.18 61.8281 1113.99 61.5464 1113.85 61.2812H1113.74V67.0909H1111.17ZM1113.69 57.5455C1113.69 58.2509 1113.79 58.8688 1113.99 59.3991C1114.2 59.9295 1114.49 60.3437 1114.87 60.642C1115.25 60.9356 1115.71 61.0824 1116.26 61.0824C1116.83 61.0824 1117.3 60.9309 1117.69 60.6278C1118.07 60.3201 1118.36 59.901 1118.55 59.3707C1118.75 58.8357 1118.85 58.2273 1118.85 57.5455C1118.85 56.8684 1118.75 56.267 1118.56 55.7415C1118.36 55.2159 1118.08 54.804 1117.69 54.5057C1117.31 54.2074 1116.83 54.0582 1116.26 54.0582C1115.71 54.0582 1115.24 54.2027 1114.86 54.4915C1114.48 54.7803 1114.18 55.1851 1113.99 55.706C1113.79 56.2268 1113.69 56.84 1113.69 57.5455ZM1128.43 63.2131C1127.37 63.2131 1126.44 62.9787 1125.66 62.5099C1124.88 62.0412 1124.27 61.3854 1123.84 60.5426C1123.42 59.6998 1123.2 58.715 1123.2 57.5881C1123.2 56.4612 1123.42 55.474 1123.84 54.6264C1124.27 53.7789 1124.88 53.1207 1125.66 52.652C1126.44 52.1832 1127.37 51.9489 1128.43 51.9489C1129.5 51.9489 1130.42 52.1832 1131.2 52.652C1131.98 53.1207 1132.59 53.7789 1133.01 54.6264C1133.44 55.474 1133.66 56.4612 1133.66 57.5881C1133.66 58.715 1133.44 59.6998 1133.01 60.5426C1132.59 61.3854 1131.98 62.0412 1131.2 62.5099C1130.42 62.9787 1129.5 63.2131 1128.43 63.2131ZM1128.45 61.1534C1129.02 61.1534 1129.51 60.9948 1129.89 60.6776C1130.28 60.3556 1130.57 59.9247 1130.76 59.3849C1130.95 58.8452 1131.05 58.2438 1131.05 57.581C1131.05 56.9134 1130.95 56.3097 1130.76 55.7699C1130.57 55.2254 1130.28 54.7921 1129.89 54.4702C1129.51 54.1482 1129.02 53.9872 1128.45 53.9872C1127.85 53.9872 1127.36 54.1482 1126.97 54.4702C1126.58 54.7921 1126.29 55.2254 1126.09 55.7699C1125.91 56.3097 1125.81 56.9134 1125.81 57.581C1125.81 58.2438 1125.91 58.8452 1126.09 59.3849C1126.29 59.9247 1126.58 60.3556 1126.97 60.6776C1127.36 60.9948 1127.85 61.1534 1128.45 61.1534ZM1144.46 54.9744L1142.12 55.2301C1142.05 54.9934 1141.94 54.7708 1141.77 54.5625C1141.61 54.3542 1141.39 54.1861 1141.12 54.0582C1140.84 53.9304 1140.51 53.8665 1140.11 53.8665C1139.57 53.8665 1139.12 53.9825 1138.76 54.2145C1138.4 54.4465 1138.22 54.7472 1138.23 55.1165C1138.22 55.4337 1138.34 55.6918 1138.57 55.8906C1138.82 56.0895 1139.21 56.2528 1139.77 56.3807L1141.63 56.7784C1142.66 57.0009 1143.43 57.3537 1143.93 57.8366C1144.44 58.3196 1144.69 58.9517 1144.7 59.733C1144.69 60.4195 1144.49 61.0256 1144.09 61.5511C1143.7 62.072 1143.15 62.4792 1142.45 62.7727C1141.75 63.0663 1140.95 63.2131 1140.04 63.2131C1138.7 63.2131 1137.63 62.9337 1136.81 62.375C1136 61.8116 1135.51 61.0279 1135.36 60.0241L1137.86 59.7827C1137.98 60.2751 1138.22 60.6468 1138.59 60.8977C1138.96 61.1487 1139.44 61.2741 1140.03 61.2741C1140.64 61.2741 1141.13 61.1487 1141.5 60.8977C1141.88 60.6468 1142.06 60.3366 1142.06 59.9673C1142.06 59.6548 1141.94 59.3968 1141.7 59.1932C1141.46 58.9896 1141.09 58.8333 1140.59 58.7244L1138.73 58.3338C1137.68 58.116 1136.91 57.7491 1136.41 57.233C1135.91 56.7121 1135.66 56.054 1135.66 55.2585C1135.66 54.5862 1135.84 54.0038 1136.21 53.5114C1136.58 53.0142 1137.1 52.6307 1137.77 52.3608C1138.43 52.0862 1139.2 51.9489 1140.07 51.9489C1141.35 51.9489 1142.36 52.2211 1143.09 52.7656C1143.83 53.3101 1144.29 54.0464 1144.46 54.9744ZM1153.77 58.4119V52.0909H1156.34V63H1153.85V61.0611H1153.73C1153.49 61.6719 1153.08 62.1714 1152.52 62.5597C1151.96 62.9479 1151.27 63.142 1150.45 63.142C1149.74 63.142 1149.11 62.9834 1148.56 62.6662C1148.01 62.3442 1147.59 61.8778 1147.28 61.267C1146.97 60.6515 1146.82 59.9081 1146.82 59.0369V52.0909H1149.39V58.6392C1149.39 59.3305 1149.58 59.8797 1149.96 60.2869C1150.34 60.6941 1150.83 60.8977 1151.45 60.8977C1151.83 60.8977 1152.19 60.8054 1152.55 60.6207C1152.9 60.4361 1153.19 60.1615 1153.42 59.7969C1153.65 59.4276 1153.77 58.9659 1153.77 58.4119ZM1158.99 63V52.0909H1161.48V53.9091H1161.59C1161.79 53.2794 1162.13 52.794 1162.61 52.4531C1163.1 52.1075 1163.66 51.9347 1164.28 51.9347C1164.43 51.9347 1164.58 51.9418 1164.76 51.956C1164.94 51.9654 1165.09 51.982 1165.21 52.0057V54.3707C1165.1 54.3329 1164.92 54.2997 1164.69 54.2713C1164.46 54.2382 1164.23 54.2216 1164.01 54.2216C1163.54 54.2216 1163.12 54.3234 1162.75 54.527C1162.38 54.7259 1162.09 55.0028 1161.88 55.358C1161.66 55.7131 1161.56 56.1226 1161.56 56.5866V63H1158.99ZM1171.3 63.2131C1170.2 63.2131 1169.26 62.9858 1168.46 62.5312C1167.67 62.072 1167.06 61.4233 1166.64 60.5852C1166.21 59.7424 1166 58.7505 1166 57.6094C1166 56.4872 1166.21 55.5024 1166.64 54.6548C1167.07 53.8026 1167.67 53.1397 1168.44 52.6662C1169.21 52.188 1170.12 51.9489 1171.16 51.9489C1171.83 51.9489 1172.47 52.0578 1173.06 52.2756C1173.66 52.4886 1174.2 52.8201 1174.65 53.2699C1175.12 53.7197 1175.48 54.2926 1175.75 54.9886C1176.01 55.6799 1176.15 56.5038 1176.15 57.4602V58.2486H1167.2V56.5156H1173.68C1173.68 56.0232 1173.57 55.5852 1173.36 55.2017C1173.15 54.8134 1172.86 54.508 1172.49 54.2855C1172.12 54.063 1171.69 53.9517 1171.2 53.9517C1170.67 53.9517 1170.21 54.0795 1169.81 54.3352C1169.41 54.5862 1169.1 54.9176 1168.88 55.3295C1168.66 55.7367 1168.55 56.1842 1168.55 56.6719V58.1847C1168.55 58.8191 1168.66 59.3636 1168.89 59.8182C1169.13 60.268 1169.45 60.6136 1169.87 60.8551C1170.28 61.0919 1170.77 61.2102 1171.33 61.2102C1171.7 61.2102 1172.04 61.1581 1172.35 61.054C1172.65 60.9451 1172.91 60.7865 1173.13 60.5781C1173.36 60.3698 1173.53 60.1117 1173.64 59.804L1176.04 60.0739C1175.89 60.7083 1175.6 61.2623 1175.17 61.7358C1174.75 62.2045 1174.21 62.5691 1173.55 62.8295C1172.9 63.0852 1172.14 63.2131 1171.3 63.2131Z" fill="#717171"/>
<path d="M476.189 212.455V227H473.554V212.455H476.189ZM482.977 227.192C482.12 227.192 481.353 226.972 480.676 226.531C479.999 226.091 479.463 225.452 479.07 224.614C478.677 223.776 478.481 222.758 478.481 221.56C478.481 220.348 478.68 219.325 479.078 218.491C479.48 217.653 480.022 217.021 480.704 216.595C481.386 216.164 482.146 215.949 482.984 215.949C483.623 215.949 484.149 216.058 484.561 216.276C484.972 216.489 485.299 216.747 485.541 217.05C485.782 217.348 485.969 217.63 486.102 217.895H486.208V212.455H488.786V227H486.258V225.281H486.102C485.969 225.546 485.777 225.828 485.526 226.126C485.276 226.42 484.944 226.671 484.532 226.879C484.12 227.088 483.602 227.192 482.977 227.192ZM483.694 225.082C484.239 225.082 484.703 224.936 485.086 224.642C485.47 224.344 485.761 223.929 485.96 223.399C486.159 222.869 486.258 222.251 486.258 221.545C486.258 220.84 486.159 220.227 485.96 219.706C485.766 219.185 485.477 218.78 485.093 218.491C484.714 218.203 484.248 218.058 483.694 218.058C483.121 218.058 482.643 218.207 482.259 218.506C481.876 218.804 481.587 219.216 481.393 219.741C481.199 220.267 481.102 220.868 481.102 221.545C481.102 222.227 481.199 222.836 481.393 223.371C481.592 223.901 481.883 224.32 482.267 224.628C482.655 224.931 483.131 225.082 483.694 225.082ZM496.356 227.213C495.262 227.213 494.317 226.986 493.522 226.531C492.731 226.072 492.123 225.423 491.697 224.585C491.27 223.742 491.057 222.75 491.057 221.609C491.057 220.487 491.27 219.502 491.697 218.655C492.127 217.803 492.729 217.14 493.501 216.666C494.272 216.188 495.179 215.949 496.221 215.949C496.893 215.949 497.528 216.058 498.124 216.276C498.725 216.489 499.256 216.82 499.715 217.27C500.179 217.72 500.544 218.293 500.809 218.989C501.074 219.68 501.206 220.504 501.206 221.46V222.249H492.265V220.516H498.742C498.737 220.023 498.631 219.585 498.422 219.202C498.214 218.813 497.923 218.508 497.549 218.286C497.18 218.063 496.749 217.952 496.256 217.952C495.731 217.952 495.269 218.08 494.871 218.335C494.474 218.586 494.163 218.918 493.941 219.33C493.723 219.737 493.612 220.184 493.607 220.672V222.185C493.607 222.819 493.723 223.364 493.955 223.818C494.187 224.268 494.511 224.614 494.928 224.855C495.345 225.092 495.832 225.21 496.391 225.21C496.765 225.21 497.104 225.158 497.407 225.054C497.71 224.945 497.973 224.786 498.195 224.578C498.418 224.37 498.586 224.112 498.699 223.804L501.1 224.074C500.948 224.708 500.66 225.262 500.233 225.736C499.812 226.205 499.272 226.569 498.614 226.83C497.956 227.085 497.203 227.213 496.356 227.213ZM506.521 227.22C505.829 227.22 505.207 227.097 504.653 226.851C504.104 226.6 503.668 226.231 503.346 225.743C503.029 225.255 502.87 224.654 502.87 223.939C502.87 223.323 502.984 222.814 503.211 222.412C503.438 222.009 503.749 221.688 504.142 221.446C504.535 221.205 504.977 221.022 505.47 220.899C505.967 220.771 506.481 220.679 507.011 220.622C507.65 220.556 508.169 220.497 508.566 220.445C508.964 220.388 509.253 220.303 509.433 220.189C509.617 220.071 509.71 219.888 509.71 219.642V219.599C509.71 219.064 509.551 218.65 509.234 218.357C508.917 218.063 508.46 217.916 507.863 217.916C507.233 217.916 506.734 218.054 506.365 218.328C506 218.603 505.754 218.927 505.626 219.301L503.225 218.96C503.415 218.297 503.727 217.743 504.163 217.298C504.598 216.848 505.131 216.512 505.761 216.29C506.391 216.062 507.087 215.949 507.849 215.949C508.374 215.949 508.898 216.01 509.419 216.134C509.939 216.257 510.415 216.46 510.846 216.744C511.277 217.024 511.623 217.405 511.883 217.888C512.148 218.371 512.281 218.974 512.281 219.699V227H509.809V225.501H509.724C509.568 225.804 509.347 226.089 509.063 226.354C508.784 226.614 508.431 226.825 508.005 226.986C507.584 227.142 507.089 227.22 506.521 227.22ZM507.188 225.331C507.704 225.331 508.152 225.229 508.531 225.026C508.91 224.817 509.201 224.543 509.404 224.202C509.613 223.861 509.717 223.489 509.717 223.087V221.801C509.636 221.867 509.499 221.929 509.305 221.986C509.115 222.043 508.902 222.092 508.666 222.135C508.429 222.178 508.195 222.215 507.963 222.249C507.731 222.282 507.529 222.31 507.359 222.334C506.975 222.386 506.632 222.471 506.329 222.589C506.026 222.708 505.787 222.874 505.612 223.087C505.436 223.295 505.349 223.565 505.349 223.896C505.349 224.37 505.522 224.727 505.867 224.969C506.213 225.21 506.653 225.331 507.188 225.331ZM520.313 216.091V218.08H514.042V216.091H520.313ZM515.59 213.477H518.161V223.719C518.161 224.064 518.213 224.33 518.318 224.514C518.427 224.694 518.569 224.817 518.744 224.884C518.919 224.95 519.113 224.983 519.326 224.983C519.487 224.983 519.634 224.971 519.767 224.947C519.904 224.924 520.008 224.902 520.079 224.884L520.512 226.893C520.375 226.941 520.178 226.993 519.923 227.05C519.672 227.107 519.364 227.14 518.999 227.149C518.356 227.168 517.776 227.071 517.259 226.858C516.743 226.64 516.334 226.304 516.031 225.849C515.732 225.395 515.586 224.827 515.59 224.145V213.477ZM527.176 227.213C526.082 227.213 525.138 226.986 524.342 226.531C523.551 226.072 522.943 225.423 522.517 224.585C522.091 223.742 521.878 222.75 521.878 221.609C521.878 220.487 522.091 219.502 522.517 218.655C522.948 217.803 523.549 217.14 524.321 216.666C525.093 216.188 525.999 215.949 527.041 215.949C527.713 215.949 528.348 216.058 528.944 216.276C529.546 216.489 530.076 216.82 530.535 217.27C530.999 217.72 531.364 218.293 531.629 218.989C531.894 219.68 532.027 220.504 532.027 221.46V222.249H523.085V220.516H529.562C529.558 220.023 529.451 219.585 529.243 219.202C529.034 218.813 528.743 218.508 528.369 218.286C528 218.063 527.569 217.952 527.077 217.952C526.551 217.952 526.089 218.08 525.692 218.335C525.294 218.586 524.984 218.918 524.761 219.33C524.543 219.737 524.432 220.184 524.427 220.672V222.185C524.427 222.819 524.543 223.364 524.775 223.818C525.007 224.268 525.332 224.614 525.748 224.855C526.165 225.092 526.653 225.21 527.211 225.21C527.586 225.21 527.924 225.158 528.227 225.054C528.53 224.945 528.793 224.786 529.015 224.578C529.238 224.37 529.406 224.112 529.52 223.804L531.92 224.074C531.769 224.708 531.48 225.262 531.054 225.736C530.632 226.205 530.093 226.569 529.434 226.83C528.776 227.085 528.023 227.213 527.176 227.213Z" fill="#717171"/>
<path d="M885.489 227V212.455H894.95V214.663H888.124V218.612H894.46V220.821H888.124V224.791H895.006V227H885.489ZM899.626 216.091L901.828 220.118L904.065 216.091H906.786L903.497 221.545L906.842 227H904.136L901.828 223.072L899.541 227H896.814L900.138 221.545L896.899 216.091H899.626ZM913.194 227.213C912.1 227.213 911.155 226.986 910.36 226.531C909.569 226.072 908.961 225.423 908.534 224.585C908.108 223.742 907.895 222.75 907.895 221.609C907.895 220.487 908.108 219.502 908.534 218.655C908.965 217.803 909.567 217.14 910.338 216.666C911.11 216.188 912.017 215.949 913.059 215.949C913.731 215.949 914.365 216.058 914.962 216.276C915.563 216.489 916.094 216.82 916.553 217.27C917.017 217.72 917.382 218.293 917.647 218.989C917.912 219.68 918.044 220.504 918.044 221.46V222.249H909.103V220.516H915.58C915.575 220.023 915.469 219.585 915.26 219.202C915.052 218.813 914.761 218.508 914.387 218.286C914.017 218.063 913.587 217.952 913.094 217.952C912.569 217.952 912.107 218.08 911.709 218.335C911.311 218.586 911.001 218.918 910.779 219.33C910.561 219.737 910.45 220.184 910.445 220.672V222.185C910.445 222.819 910.561 223.364 910.793 223.818C911.025 224.268 911.349 224.614 911.766 224.855C912.183 225.092 912.67 225.21 913.229 225.21C913.603 225.21 913.942 225.158 914.245 225.054C914.548 224.945 914.81 224.786 915.033 224.578C915.256 224.37 915.424 224.112 915.537 223.804L917.938 224.074C917.786 224.708 917.498 225.262 917.071 225.736C916.65 226.205 916.11 226.569 915.452 226.83C914.794 227.085 914.041 227.213 913.194 227.213ZM924.978 227.213C923.889 227.213 922.954 226.974 922.173 226.496C921.396 226.018 920.797 225.357 920.376 224.514C919.959 223.667 919.751 222.691 919.751 221.588C919.751 220.48 919.964 219.502 920.39 218.655C920.816 217.803 921.417 217.14 922.194 216.666C922.975 216.188 923.898 215.949 924.964 215.949C925.849 215.949 926.633 216.112 927.315 216.439C928.001 216.761 928.548 217.218 928.955 217.81C929.362 218.397 929.594 219.083 929.651 219.869H927.194C927.094 219.344 926.858 218.906 926.484 218.555C926.114 218.2 925.62 218.023 924.999 218.023C924.474 218.023 924.012 218.165 923.614 218.449C923.217 218.728 922.906 219.131 922.684 219.656C922.466 220.182 922.357 220.812 922.357 221.545C922.357 222.289 922.466 222.928 922.684 223.463C922.902 223.993 923.207 224.403 923.6 224.692C923.998 224.976 924.464 225.118 924.999 225.118C925.378 225.118 925.717 225.047 926.015 224.905C926.318 224.758 926.571 224.547 926.775 224.273C926.978 223.998 927.118 223.664 927.194 223.271H929.651C929.59 224.043 929.362 224.727 928.969 225.324C928.576 225.916 928.041 226.38 927.364 226.716C926.687 227.047 925.892 227.213 924.978 227.213ZM938.716 222.412V216.091H941.287V227H938.794V225.061H938.68C938.434 225.672 938.029 226.171 937.466 226.56C936.907 226.948 936.218 227.142 935.399 227.142C934.684 227.142 934.052 226.983 933.502 226.666C932.958 226.344 932.532 225.878 932.224 225.267C931.916 224.652 931.762 223.908 931.762 223.037V216.091H934.333V222.639C934.333 223.33 934.523 223.88 934.902 224.287C935.28 224.694 935.778 224.898 936.393 224.898C936.772 224.898 937.139 224.805 937.494 224.621C937.849 224.436 938.14 224.161 938.368 223.797C938.6 223.428 938.716 222.966 938.716 222.412ZM949.378 216.091V218.08H943.107V216.091H949.378ZM944.655 213.477H947.226V223.719C947.226 224.064 947.278 224.33 947.382 224.514C947.491 224.694 947.633 224.817 947.808 224.884C947.983 224.95 948.178 224.983 948.391 224.983C948.552 224.983 948.698 224.971 948.831 224.947C948.968 224.924 949.072 224.902 949.143 224.884L949.577 226.893C949.439 226.941 949.243 226.993 948.987 227.05C948.736 227.107 948.429 227.14 948.064 227.149C947.42 227.168 946.84 227.071 946.324 226.858C945.808 226.64 945.398 226.304 945.095 225.849C944.797 225.395 944.65 224.827 944.655 224.145V213.477ZM956.24 227.213C955.147 227.213 954.202 226.986 953.407 226.531C952.616 226.072 952.007 225.423 951.581 224.585C951.155 223.742 950.942 222.75 950.942 221.609C950.942 220.487 951.155 219.502 951.581 218.655C952.012 217.803 952.614 217.14 953.385 216.666C954.157 216.188 955.064 215.949 956.105 215.949C956.778 215.949 957.412 216.058 958.009 216.276C958.61 216.489 959.141 216.82 959.6 217.27C960.064 217.72 960.428 218.293 960.694 218.989C960.959 219.68 961.091 220.504 961.091 221.46V222.249H952.15V220.516H958.627C958.622 220.023 958.516 219.585 958.307 219.202C958.099 218.813 957.808 218.508 957.434 218.286C957.064 218.063 956.633 217.952 956.141 217.952C955.615 217.952 955.154 218.08 954.756 218.335C954.358 218.586 954.048 218.918 953.826 219.33C953.608 219.737 953.497 220.184 953.492 220.672V222.185C953.492 222.819 953.608 223.364 953.84 223.818C954.072 224.268 954.396 224.614 954.813 224.855C955.23 225.092 955.717 225.21 956.276 225.21C956.65 225.21 956.989 225.158 957.292 225.054C957.595 224.945 957.857 224.786 958.08 224.578C958.302 224.37 958.471 224.112 958.584 223.804L960.985 224.074C960.833 224.708 960.544 225.262 960.118 225.736C959.697 226.205 959.157 226.569 958.499 226.83C957.841 227.085 957.088 227.213 956.24 227.213Z" fill="#717171"/>
<defs>
<filter id="filter0_d_185_579" x="1061.62" y="115.303" width="132.748" height="133.141" filterUnits="userSpaceOnUse" color-interpolation-filters="sRGB">
<feFlood flood-opacity="0" result="BackgroundImageFix"/>
<feColorMatrix in="SourceAlpha" type="matrix" values="0 0 0 0 0 0 0 0 0 0 0 0 0 0 0 0 0 0 127 0" result="hardAlpha"/>
<feOffset dx="1" dy="1"/>
<feGaussianBlur stdDeviation="1"/>
<feColorMatrix type="matrix" values="0 0 0 0 0 0 0 0 0 0 0 0 0 0 0 0 0 0 0.1 0"/>
<feBlend mode="normal" in2="BackgroundImageFix" result="effect1_dropShadow_185_579"/>
<feBlend mode="normal" in="SourceGraphic" in2="effect1_dropShadow_185_579" result="shape"/>
</filter>
<filter id="filter1_d_185_579" x="853.607" y="21.9766" width="132.728" height="133.121" filterUnits="userSpaceOnUse" color-interpolation-filters="sRGB">
<feFlood flood-opacity="0" result="BackgroundImageFix"/>
<feColorMatrix in="SourceAlpha" type="matrix" values="0 0 0 0 0 0 0 0 0 0 0 0 0 0 0 0 0 0 127 0" result="hardAlpha"/>
<feOffset dx="1" dy="1"/>
<feGaussianBlur stdDeviation="1"/>
<feColorMatrix type="matrix" values="0 0 0 0 0 0 0 0 0 0 0 0 0 0 0 0 0 0 0.1 0"/>
<feBlend mode="normal" in2="BackgroundImageFix" result="effect1_dropShadow_185_579"/>
<feBlend mode="normal" in="SourceGraphic" in2="effect1_dropShadow_185_579" result="shape"/>
</filter>
<filter id="filter2_d_185_579" x="645.628" y="115.311" width="132.728" height="133.121" filterUnits="userSpaceOnUse" color-interpolation-filters="sRGB">
<feFlood flood-opacity="0" result="BackgroundImageFix"/>
<feColorMatrix in="SourceAlpha" type="matrix" values="0 0 0 0 0 0 0 0 0 0 0 0 0 0 0 0 0 0 127 0" result="hardAlpha"/>
<feOffset dx="1" dy="1"/>
<feGaussianBlur stdDeviation="1"/>
<feColorMatrix type="matrix" values="0 0 0 0 0 0 0 0 0 0 0 0 0 0 0 0 0 0 0.1 0"/>
<feBlend mode="normal" in2="BackgroundImageFix" result="effect1_dropShadow_185_579"/>
<feBlend mode="normal" in="SourceGraphic" in2="effect1_dropShadow_185_579" result="shape"/>
</filter>
<filter id="filter3_d_185_579" x="437.648" y="21.9766" width="132.728" height="133.121" filterUnits="userSpaceOnUse" color-interpolation-filters="sRGB">
<feFlood flood-opacity="0" result="BackgroundImageFix"/>
<feColorMatrix in="SourceAlpha" type="matrix" values="0 0 0 0 0 0 0 0 0 0 0 0 0 0 0 0 0 0 127 0" result="hardAlpha"/>
<feOffset dx="1" dy="1"/>
<feGaussianBlur stdDeviation="1"/>
<feColorMatrix type="matrix" values="0 0 0 0 0 0 0 0 0 0 0 0 0 0 0 0 0 0 0.1 0"/>
<feBlend mode="normal" in2="BackgroundImageFix" result="effect1_dropShadow_185_579"/>
<feBlend mode="normal" in="SourceGraphic" in2="effect1_dropShadow_185_579" result="shape"/>
</filter>
<filter id="filter4_d_185_579" x="229.67" y="115.311" width="132.728" height="133.121" filterUnits="userSpaceOnUse" color-interpolation-filters="sRGB">
<feFlood flood-opacity="0" result="BackgroundImageFix"/>
<feColorMatrix in="SourceAlpha" type="matrix" values="0 0 0 0 0 0 0 0 0 0 0 0 0 0 0 0 0 0 127 0" result="hardAlpha"/>
<feOffset dx="1" dy="1"/>
<feGaussianBlur stdDeviation="1"/>
<feColorMatrix type="matrix" values="0 0 0 0 0 0 0 0 0 0 0 0 0 0 0 0 0 0 0.1 0"/>
<feBlend mode="normal" in2="BackgroundImageFix" result="effect1_dropShadow_185_579"/>
<feBlend mode="normal" in="SourceGraphic" in2="effect1_dropShadow_185_579" result="shape"/>
</filter>
<filter id="filter5_d_185_579" x="21.6895" y="21.9766" width="132.729" height="133.121" filterUnits="userSpaceOnUse" color-interpolation-filters="sRGB">
<feFlood flood-opacity="0" result="BackgroundImageFix"/>
<feColorMatrix in="SourceAlpha" type="matrix" values="0 0 0 0 0 0 0 0 0 0 0 0 0 0 0 0 0 0 127 0" result="hardAlpha"/>
<feOffset dx="1" dy="1"/>
<feGaussianBlur stdDeviation="1"/>
<feColorMatrix type="matrix" values="0 0 0 0 0 0 0 0 0 0 0 0 0 0 0 0 0 0 0.1 0"/>
<feBlend mode="normal" in2="BackgroundImageFix" result="effect1_dropShadow_185_579"/>
<feBlend mode="normal" in="SourceGraphic" in2="effect1_dropShadow_185_579" result="shape"/>
</filter>
<linearGradient id="paint0_linear_185_579" x1="76.5494" y1="367.476" x2="1290.84" y2="-163.308" gradientUnits="userSpaceOnUse">
<stop stop-color="#FF40E1"/>
<stop offset="1" stop-color="#FFB43C"/>
</linearGradient>
</defs>
</svg>
