<svg width="38" height="38" viewBox="0 0 38 38" fill="none" xmlns="http://www.w3.org/2000/svg">
<path d="M12.3057 3.8608L14.0094 3.31613C15.6069 2.8063 17.3138 3.63121 17.9978 5.24305L19.3594 8.45405C19.9516 9.85213 19.6223 11.4972 18.5456 12.52L15.5452 15.3669C15.7304 17.0705 16.3036 18.7473 17.2631 20.3971C18.1743 21.9933 19.3964 23.3905 20.8573 24.5059L24.4609 23.3025C25.8258 22.8481 27.3141 23.3722 28.1501 24.6025L30.1024 27.4683C31.0761 28.8996 30.9004 30.8725 29.6923 32.0853L28.3987 33.3852C27.1099 34.6788 25.2684 35.149 23.5664 34.617C19.5447 33.363 15.8508 29.6406 12.4783 23.4498C9.10102 17.2495 7.90877 11.9865 8.90311 7.66713C9.32111 5.84946 10.6147 4.40071 12.3057 3.8608Z" fill="#FF8A00"/>
</svg>
